<svg width="30" height="30" viewBox="0 0 30 30" fill="none" xmlns="http://www.w3.org/2000/svg">
<path fill-rule="evenodd" clip-rule="evenodd" d="M18.75 29.8836C19.1656 29.8578 19.5822 29.8278 20 29.7935C20.4981 29.7526 20.998 29.7057 21.5 29.6527C21.9204 29.6083 22.3422 29.5596 22.7658 29.5067C26.6457 29.0222 28.5492 27.5497 29.1914 24.2879C30.3212 18.549 29.9803 13.4317 29.8434 11.3779L29.8343 11.2406C29.7417 9.84221 22.2221 4.10415 17.9463 0.949057C16.2245 -0.321419 13.8906 -0.315641 12.1743 0.96223C7.93407 4.11925 0.487404 9.84121 0.276657 11.2406C-0.0184485 13.2002 -0.365834 18.4166 0.918963 24.2879C1.62763 27.5263 3.46582 29.012 7.34444 29.5068C7.73044 29.556 8.11556 29.6016 8.5 29.6434C9.00105 29.698 9.50092 29.7463 10 29.7883C10.4171 29.8235 10.8337 29.8542 11.25 29.8806V26.25H11.5V26.244V26.2183V26.1926V26.1669V26.1411V26.1153V26.0895V26.0636V26.0377V26.0118V25.9858V25.9599V25.9338V25.9078V25.8817V25.8556V25.8295V25.8034V25.7772V25.751V25.7248V25.6986V25.6723V25.646V25.6197V25.5934V25.5671V25.5407V25.5144V25.488V25.4616V25.4352V25.4087V25.3823V25.3558V25.3294V25.3029V25.2764V25.2499V25.2234V25.1968V25.1703V25.1438V25.1172V25.0907V25.0641V25.0376V25.011V24.9844V24.9579V24.9313V24.9047V24.8782V24.8516V24.825V24.7984V24.7719V24.7453V24.7187V24.6922V24.6656V24.6391V24.6126V24.586V24.5595V24.533V24.5065V24.48V24.4535V24.427V24.4006V24.3741V24.3477V24.3213V24.2949V24.2685V24.2421V24.2157V24.1894V24.1631V24.1368V24.1105V24.0842V24.058V24.0318V24.0056V23.9794V23.9532V23.9271V23.901V23.8749V23.8489V23.8229V23.7969V23.7709V23.745V23.7191V23.6932V23.6673V23.6415V23.6158V23.59V23.5643V23.5386V23.513V23.4874V23.4618V23.4363V23.4108V23.3854V23.36V23.3346V23.3093V23.284V23.2587V23.2335V23.2084V23.1833V23.1582V23.1332V23.1082V23.0833V23.0584V23.0336V23.0088V22.984V22.9594V22.9347V22.9102V22.8856V22.8612V22.8368V22.8124V22.7881V22.7639V22.7397V22.7155V22.6915V22.6675V22.6435V22.6196V22.5958V22.572V22.5483V22.5247V22.5011V22.4776V22.4541V22.4307V22.4074V22.3842V22.361V22.3379V22.3148V22.2919V22.269V22.2461V22.2234V22.2007V22.1781V22.1556V22.1331V22.1107V22.0884V22.0662V22.044V22.022V22V21.9781V21.9562V21.9345V21.9128V21.8912V21.8697V21.8483V21.827V21.8057V21.7846V21.7635V21.7425V21.7216V21.7008V21.6801V21.6595V21.6389V21.6185V21.5981V21.5779V21.5577V21.5376V21.5177V21.4978V21.478V21.4583V21.4387V21.4192V21.3999V21.3806V21.3614V21.3423V21.3233V21.3044V21.2857V21.267V21.2484V21.23V21.2116V21.1934V21.1752V21.1572V21.1393V21.1215V21.1038V21.0862V21.0687V21.0513V21.0341V21.017V20.9999V20.983V20.9662V20.9496V20.933V20.9166V20.9002V20.8841V20.868V20.852V20.8362V20.8205V20.8049V20.7894V20.7741V20.7589V20.7438V20.7288V20.714V20.6993V20.6847V20.6702V20.6559V20.6417V20.6277V20.6137V20.5999V20.5863V20.5728V20.5594V20.5461V20.533V20.52V20.5072V20.4945V20.4819V20.4695V20.4572V20.4451V20.433V20.4212V20.4095V20.3979V20.3865V20.3752V20.3641V20.3531V20.3422V20.3315V20.321V20.3106V20.3003V20.2903V20.2803V20.2705V20.2609V20.2514V20.2421V20.2329V20.2239V20.215V20.2063V20.1978V20.1894V20.1812V20.1731V20.1652V20.1574V20.1498V20.1424C11.5 20.0027 11.5847 19.7383 11.8431 19.4794C12.1016 19.2203 12.364 19.1369 12.5 19.1369H12.5073H12.5147H12.5221H12.5295H12.537H12.5445H12.552H12.5595H12.5671H12.5746H12.5823H12.5899H12.5976H12.6053H12.613H12.6208H12.6285H12.6364H12.6442H12.6521H12.6599H12.6679H12.6758H12.6838H12.6917H12.6998H12.7078H12.7159H12.724H12.7321H12.7402H12.7484H12.7566H12.7648H12.7731H12.7813H12.7896H12.7979H12.8063H12.8147H12.823H12.8315H12.8399H12.8484H12.8569H12.8654H12.8739H12.8825H12.891H12.8996H12.9083H12.9169H12.9256H12.9343H12.943H12.9517H12.9605H12.9693H12.9781H12.9869H12.9958H13.0046H13.0135H13.0225H13.0314H13.0403H13.0493H13.0583H13.0674H13.0764H13.0855H13.0945H13.1036H13.1128H13.1219H13.1311H13.1403H13.1495H13.1587H13.1679H13.1772H13.1865H13.1958H13.2051H13.2145H13.2238H13.2332H13.2426H13.252H13.2615H13.2709H13.2804H13.2899H13.2994H13.3089H13.3185H13.328H13.3376H13.3472H13.3568H13.3665H13.3761H13.3858H13.3955H13.4052H13.4149H13.4246H13.4344H13.4442H13.454H13.4638H13.4736H13.4834H13.4933H13.5031H13.513H13.5229H13.5328H13.5428H13.5527H13.5627H13.5726H13.5826H13.5926H13.6027H13.6127H13.6227H13.6328H13.6429H13.653H13.6631H13.6732H13.6833H13.6935H13.7036H13.7138H13.724H13.7342H13.7444H13.7547H13.7649H13.7751H13.7854H13.7957H13.806H13.8163H13.8266H13.8369H13.8473H13.8576H13.868H13.8784H13.8888H13.8992H13.9096H13.92H13.9304H13.9409H13.9513H13.9618H13.9723H13.9827H13.9932H14.0038H14.0143H14.0248H14.0353H14.0459H14.0564H14.067H14.0776H14.0882H14.0988H14.1094H14.12H14.1306H14.1413H14.1519H14.1625H14.1732H14.1839H14.1946H14.2052H14.2159H14.2266H14.2373H14.2481H14.2588H14.2695H14.2803H14.291H14.3018H14.3125H14.3233H14.3341H14.3448H14.3556H14.3664H14.3772H14.388H14.3988H14.4097H14.4205H14.4313H14.4422H14.453H14.4639H14.4747H14.4856H14.4964H14.5073H14.5182H14.5291H14.5399H14.5508H14.5617H14.5726H14.5835H14.5944H14.6054H14.6163H14.6272H14.6381H14.649H14.66H14.6709H14.6818H14.6928H14.7037H14.7147H14.7256H14.7366H14.7475H14.7585H14.7695H14.7804H14.7914H14.8023H14.8133H14.8243H14.8353H14.8462H14.8572H14.8682H14.8792H14.8901H14.9011H14.9121H14.9231H14.9341H14.9451H14.956H14.967H14.978H14.989H15H15.011H15.022H15.033H15.0439H15.0549H15.0659H15.0769H15.0879H15.0989H15.1098H15.1208H15.1318H15.1428H15.1538H15.1647H15.1757H15.1867H15.1976H15.2086H15.2196H15.2305H15.2415H15.2525H15.2634H15.2744H15.2853H15.2963H15.3072H15.3181H15.3291H15.34H15.3509H15.3619H15.3728H15.3837H15.3946H15.4055H15.4165H15.4274H15.4383H15.4491H15.46H15.4709H15.4818H15.4927H15.5036H15.5144H15.5253H15.5361H15.547H15.5578H15.5687H15.5795H15.5903H15.6011H15.612H15.6228H15.6336H15.6444H15.6551H15.6659H15.6767H15.6875H15.6982H15.709H15.7197H15.7305H15.7412H15.7519H15.7626H15.7734H15.7841H15.7947H15.8054H15.8161H15.8268H15.8374H15.8481H15.8587H15.8694H15.88H15.8906H15.9012H15.9118H15.9224H15.933H15.9435H15.9541H15.9646H15.9752H15.9857H15.9962H16.0067H16.0172H16.0277H16.0382H16.0487H16.0591H16.0696H16.08H16.0904H16.1008H16.1112H16.1216H16.132H16.1424H16.1527H16.1631H16.1734H16.1837H16.194H16.2043H16.2146H16.2248H16.2351H16.2453H16.2556H16.2658H16.276H16.2862H16.2963H16.3065H16.3166H16.3268H16.3369H16.347H16.3571H16.3672H16.3772H16.3873H16.3973H16.4073H16.4174H16.4273H16.4373H16.4473H16.4572H16.4672H16.4771H16.487H16.4969H16.5067H16.5166H16.5264H16.5362H16.546H16.5558H16.5656H16.5753H16.5851H16.5948H16.6045H16.6142H16.6239H16.6335H16.6431H16.6528H16.6624H16.6719H16.6815H16.6911H16.7006H16.7101H16.7196H16.7291H16.7385H16.748H16.7574H16.7668H16.7762H16.7855H16.7949H16.8042H16.8135H16.8228H16.832H16.8413H16.8505H16.8597H16.8689H16.8781H16.8872H16.8963H16.9054H16.9145H16.9236H16.9326H16.9417H16.9507H16.9596H16.9686H16.9775H16.9864H16.9953H17.0042H17.0131H17.0219H17.0307H17.0395H17.0482H17.057H17.0657H17.0744H17.0831H17.0917H17.1003H17.1089H17.1175H17.1261H17.1346H17.1431H17.1516H17.1601H17.1685H17.1769H17.1853H17.1937H17.202H17.2104H17.2186H17.2269H17.2352H17.2434H17.2516H17.2597H17.2679H17.276H17.2841H17.2922H17.3002H17.3082H17.3162H17.3242H17.3321H17.34H17.3479H17.3558H17.3636H17.3714H17.3792H17.387H17.3947H17.4024H17.4101H17.4177H17.4253H17.4329H17.4405H17.448H17.4555H17.463H17.4705H17.4779H17.4853H17.4927H17.5C17.636 19.1369 17.8984 19.2203 18.1569 19.4794C18.4153 19.7383 18.5 20.0027 18.5 20.1424V25.4378V26.25H18.75V29.8836ZM22.394 26.5299C22.095 26.5672 21.797 26.6023 21.5 26.6352V25.4378V20.1424C21.5 19.0294 20.9597 18.041 20.2806 17.3604C19.6016 16.68 18.614 16.1369 17.5 16.1369H17.4927H17.4853H17.4779H17.4705H17.463H17.4555H17.448H17.4405H17.4329H17.4253H17.4177H17.4101H17.4024H17.3947H17.387H17.3792H17.3714H17.3636H17.3558H17.3479H17.34H17.3321H17.3242H17.3162H17.3082H17.3002H17.2922H17.2841H17.276H17.2679H17.2597H17.2516H17.2434H17.2352H17.2269H17.2186H17.2104H17.202H17.1937H17.1853H17.1769H17.1685H17.1601H17.1516H17.1431H17.1346H17.1261H17.1175H17.1089H17.1003H17.0917H17.0831H17.0744H17.0657H17.057H17.0482H17.0395H17.0307H17.0219H17.0131H17.0042H16.9953H16.9864H16.9775H16.9686H16.9596H16.9507H16.9417H16.9326H16.9236H16.9145H16.9054H16.8963H16.8872H16.8781H16.8689H16.8597H16.8505H16.8413H16.832H16.8228H16.8135H16.8042H16.7949H16.7855H16.7762H16.7668H16.7574H16.748H16.7385H16.7291H16.7196H16.7101H16.7006H16.6911H16.6815H16.6719H16.6624H16.6528H16.6431H16.6335H16.6239H16.6142H16.6045H16.5948H16.5851H16.5753H16.5656H16.5558H16.546H16.5362H16.5264H16.5166H16.5067H16.4969H16.487H16.4771H16.4672H16.4572H16.4473H16.4373H16.4273H16.4174H16.4073H16.3973H16.3873H16.3772H16.3672H16.3571H16.347H16.3369H16.3268H16.3166H16.3065H16.2963H16.2862H16.276H16.2658H16.2556H16.2453H16.2351H16.2248H16.2146H16.2043H16.194H16.1837H16.1734H16.1631H16.1527H16.1424H16.132H16.1216H16.1112H16.1008H16.0904H16.08H16.0696H16.0591H16.0487H16.0382H16.0277H16.0172H16.0067H15.9962H15.9857H15.9752H15.9646H15.9541H15.9435H15.933H15.9224H15.9118H15.9012H15.8906H15.88H15.8694H15.8587H15.8481H15.8374H15.8268H15.8161H15.8054H15.7947H15.7841H15.7734H15.7626H15.7519H15.7412H15.7305H15.7197H15.709H15.6982H15.6875H15.6767H15.6659H15.6551H15.6444H15.6336H15.6228H15.612H15.6011H15.5903H15.5795H15.5687H15.5578H15.547H15.5361H15.5253H15.5144H15.5036H15.4927H15.4818H15.4709H15.46H15.4491H15.4383H15.4274H15.4165H15.4055H15.3946H15.3837H15.3728H15.3619H15.3509H15.34H15.3291H15.3181H15.3072H15.2963H15.2853H15.2744H15.2634H15.2525H15.2415H15.2305H15.2196H15.2086H15.1976H15.1867H15.1757H15.1647H15.1538H15.1428H15.1318H15.1208H15.1098H15.0989H15.0879H15.0769H15.0659H15.0549H15.0439H15.033H15.022H15.011H15H14.989H14.978H14.967H14.956H14.9451H14.9341H14.9231H14.9121H14.9011H14.8901H14.8792H14.8682H14.8572H14.8462H14.8353H14.8243H14.8133H14.8023H14.7914H14.7804H14.7695H14.7585H14.7475H14.7366H14.7256H14.7147H14.7037H14.6928H14.6818H14.6709H14.66H14.649H14.6381H14.6272H14.6163H14.6054H14.5944H14.5835H14.5726H14.5617H14.5508H14.5399H14.5291H14.5182H14.5073H14.4964H14.4856H14.4747H14.4639H14.453H14.4422H14.4313H14.4205H14.4097H14.3988H14.388H14.3772H14.3664H14.3556H14.3448H14.3341H14.3233H14.3125H14.3018H14.291H14.2803H14.2695H14.2588H14.2481H14.2373H14.2266H14.2159H14.2052H14.1946H14.1839H14.1732H14.1625H14.1519H14.1413H14.1306H14.12H14.1094H14.0988H14.0882H14.0776H14.067H14.0564H14.0459H14.0353H14.0248H14.0143H14.0038H13.9932H13.9827H13.9723H13.9618H13.9513H13.9409H13.9304H13.92H13.9096H13.8992H13.8888H13.8784H13.868H13.8576H13.8473H13.8369H13.8266H13.8163H13.806H13.7957H13.7854H13.7751H13.7649H13.7547H13.7444H13.7342H13.724H13.7138H13.7036H13.6935H13.6833H13.6732H13.6631H13.653H13.6429H13.6328H13.6227H13.6127H13.6027H13.5926H13.5826H13.5726H13.5627H13.5527H13.5428H13.5328H13.5229H13.513H13.5031H13.4933H13.4834H13.4736H13.4638H13.454H13.4442H13.4344H13.4246H13.4149H13.4052H13.3955H13.3858H13.3761H13.3665H13.3568H13.3472H13.3376H13.328H13.3185H13.3089H13.2994H13.2899H13.2804H13.2709H13.2615H13.252H13.2426H13.2332H13.2238H13.2145H13.2051H13.1958H13.1865H13.1772H13.1679H13.1587H13.1495H13.1403H13.1311H13.1219H13.1128H13.1036H13.0945H13.0855H13.0764H13.0674H13.0583H13.0493H13.0403H13.0314H13.0225H13.0135H13.0046H12.9958H12.9869H12.9781H12.9693H12.9605H12.9517H12.943H12.9343H12.9256H12.9169H12.9083H12.8996H12.891H12.8825H12.8739H12.8654H12.8569H12.8484H12.8399H12.8315H12.823H12.8147H12.8063H12.7979H12.7896H12.7813H12.7731H12.7648H12.7566H12.7484H12.7402H12.7321H12.724H12.7159H12.7078H12.6998H12.6917H12.6838H12.6758H12.6679H12.6599H12.6521H12.6442H12.6364H12.6285H12.6208H12.613H12.6053H12.5976H12.5899H12.5823H12.5746H12.5671H12.5595H12.552H12.5445H12.537H12.5295H12.5221H12.5147H12.5073H12.5C11.386 16.1369 10.3984 16.68 9.71942 17.3604C9.04028 18.041 8.5 19.0294 8.5 20.1424V20.1498V20.1574V20.1652V20.1731V20.1812V20.1894V20.1978V20.2063V20.215V20.2239V20.2329V20.2421V20.2514V20.2609V20.2705V20.2803V20.2903V20.3003V20.3106V20.321V20.3315V20.3422V20.3531V20.3641V20.3752V20.3865V20.3979V20.4095V20.4212V20.433V20.4451V20.4572V20.4695V20.4819V20.4945V20.5072V20.52V20.533V20.5461V20.5594V20.5728V20.5863V20.5999V20.6137V20.6277V20.6417V20.6559V20.6702V20.6847V20.6993V20.714V20.7288V20.7438V20.7589V20.7741V20.7894V20.8049V20.8205V20.8362V20.852V20.868V20.8841V20.9002V20.9166V20.933V20.9496V20.9662V20.983V20.9999V21.017V21.0341V21.0513V21.0687V21.0862V21.1038V21.1215V21.1393V21.1572V21.1752V21.1934V21.2116V21.23V21.2484V21.267V21.2857V21.3044V21.3233V21.3423V21.3614V21.3806V21.3999V21.4192V21.4387V21.4583V21.478V21.4978V21.5177V21.5376V21.5577V21.5779V21.5981V21.6185V21.6389V21.6595V21.6801V21.7008V21.7216V21.7425V21.7635V21.7846V21.8057V21.827V21.8483V21.8697V21.8912V21.9128V21.9345V21.9562V21.9781V22V22.022V22.044V22.0662V22.0884V22.1107V22.1331V22.1556V22.1781V22.2007V22.2234V22.2461V22.269V22.2919V22.3148V22.3379V22.361V22.3842V22.4074V22.4307V22.4541V22.4776V22.5011V22.5247V22.5483V22.572V22.5958V22.6196V22.6435V22.6675V22.6915V22.7155V22.7397V22.7639V22.7881V22.8124V22.8368V22.8612V22.8856V22.9102V22.9347V22.9594V22.984V23.0088V23.0336V23.0584V23.0833V23.1082V23.1332V23.1582V23.1833V23.2084V23.2335V23.2587V23.284V23.3093V23.3346V23.36V23.3854V23.4108V23.4363V23.4618V23.4874V23.513V23.5386V23.5643V23.59V23.6158V23.6415V23.6673V23.6932V23.7191V23.745V23.7709V23.7969V23.8229V23.8489V23.8749V23.901V23.9271V23.9532V23.9794V24.0056V24.0318V24.058V24.0842V24.1105V24.1368V24.1631V24.1894V24.2157V24.2421V24.2685V24.2949V24.3213V24.3477V24.3741V24.4006V24.427V24.4535V24.48V24.5065V24.533V24.5595V24.586V24.6126V24.6391V24.6656V24.6922V24.7187V24.7453V24.7719V24.7984V24.825V24.8516V24.8782V24.9047V24.9313V24.9579V24.9844V25.011V25.0376V25.0641V25.0907V25.1172V25.1438V25.1703V25.1968V25.2234V25.2499V25.2764V25.3029V25.3294V25.3558V25.3823V25.4087V25.4352V25.4616V25.488V25.5144V25.5407V25.5671V25.5934V25.6197V25.646V25.6723V25.6986V25.7248V25.751V25.7772V25.8034V25.8295V25.8556V25.8817V25.9078V25.9338V25.9599V25.9858V26.0118V26.0377V26.0636V26.0895V26.1153V26.1411V26.1669V26.1926V26.2183V26.244V26.2696V26.2952V26.3208V26.3463V26.3717V26.3972V26.4226V26.4479V26.4733V26.4985V26.5238V26.549V26.5741V26.5992V26.6242V26.6248C8.24182 26.5952 7.98318 26.5639 7.72403 26.5309C6.0539 26.3179 5.25358 25.9377 4.83312 25.5965C4.47507 25.306 4.10485 24.8129 3.84962 23.6465C2.76386 18.6849 2.94418 14.2282 3.17481 12.2104C3.30339 12.0634 3.48662 11.8688 3.73413 11.6249C4.43575 10.9334 5.44078 10.053 6.6265 9.07222C8.98461 7.12175 11.8575 4.9383 13.9659 3.36852C14.6235 2.87885 15.5068 2.87732 16.165 3.36302C18.2906 4.93149 21.1869 7.11607 23.5486 9.06664C24.737 10.0482 25.7341 10.9248 26.4189 11.6088C26.6183 11.808 26.7711 11.9709 26.884 12.0989C27.0249 14.3467 27.2154 18.794 26.2479 23.7084C26.0239 24.846 25.6634 25.3192 25.3139 25.6C24.8891 25.9413 24.0737 26.3201 22.394 26.5299Z" fill="#808191"/>
</svg>
