<svg width="30" height="30" viewBox="0 0 30 30" fill="none" xmlns="http://www.w3.org/2000/svg">
<path d="M1.25 15C1.25 18.0596 1.41557 20.4329 1.82691 22.2838C2.23509 24.1204 2.86847 25.3651 3.7517 26.2483C4.63492 27.1315 5.87957 27.7649 7.71623 28.1731C9.56708 28.5844 11.9404 28.75 15 28.75C18.0596 28.75 20.4329 28.5844 22.2838 28.1731C24.1204 27.7649 25.3651 27.1315 26.2483 26.2483C27.1315 25.3651 27.7649 24.1204 28.1731 22.2838C28.5844 20.4329 28.75 18.0596 28.75 15C28.75 11.9404 28.5844 9.56708 28.1731 7.71622C27.7649 5.87957 27.1315 4.63492 26.2483 3.7517C25.3651 2.86847 24.1204 2.23509 22.2838 1.82691C20.4329 1.41557 18.0596 1.25 15 1.25C11.9404 1.25 9.56708 1.41557 7.71623 1.82691C5.87957 2.23509 4.63492 2.86847 3.7517 3.7517C2.86847 4.63492 2.23509 5.87957 1.82691 7.71622C1.41557 9.56708 1.25 11.9404 1.25 15Z" stroke="#808191" stroke-width="2.5" stroke-linecap="round" stroke-linejoin="round"/>
<path d="M11.1449 20.9361L11.1449 20.9361C11.9971 21.4495 12.8746 21.2398 13.5282 20.9704C14.1499 20.7142 14.8916 20.2673 15.7189 19.7688C15.7459 19.7525 15.7731 19.7362 15.8003 19.7198L17.8195 18.5034C17.8461 18.4874 17.8727 18.4714 17.8991 18.4555C18.7281 17.9563 19.4692 17.5099 19.9911 17.0777C20.5459 16.6181 21.1168 15.9615 21.1168 15C21.1168 14.0385 20.5459 13.3819 19.9911 12.9223C19.4692 12.4901 18.7281 12.0437 17.8991 11.5445C17.8727 11.5286 17.8461 11.5126 17.8195 11.4966L15.8003 10.2802C15.7731 10.2638 15.7459 10.2475 15.7189 10.2312C14.8916 9.73274 14.1499 9.28585 13.5282 9.02961C12.8746 8.76019 11.9971 8.55052 11.1449 9.06388C10.3126 9.56524 10.0631 10.4238 9.96342 11.1242C9.86665 11.8043 9.86673 12.6897 9.86682 13.6931C9.86682 13.7232 9.86682 13.7534 9.86682 13.7837L9.86682 16.2163C9.86682 16.2466 9.86682 16.2768 9.86682 16.3069C9.86673 17.3103 9.86665 18.1957 9.96342 18.8758C10.0631 19.5762 10.3126 20.4348 11.1449 20.9361Z" stroke="#808191" stroke-width="2.5" stroke-linecap="round" stroke-linejoin="round"/>
</svg>
