<svg width="40" height="30" viewBox="0 0 40 30" fill="none" xmlns="http://www.w3.org/2000/svg">
<path fill-rule="evenodd" clip-rule="evenodd" d="M18.5177 0.799853C18.817 0.623475 19.1486 0.508842 19.4929 0.462721C19.8372 0.4166 20.1873 0.439924 20.5225 0.531319C20.8576 0.622713 21.1711 0.780325 21.4443 0.99485C21.7175 1.20937 21.945 1.47647 22.1133 1.78036M22.1133 1.78036L26.8871 10.3825C26.8889 10.3855 26.8917 10.3878 26.8949 10.389H26.9053L35.1265 6.73359L35.1317 6.73099C35.5754 6.53563 36.0649 6.46819 36.5449 6.53627C37.0249 6.60435 37.4763 6.80525 37.8482 7.11629C38.2201 7.42732 38.4977 7.83612 38.6496 8.29654C38.8014 8.75695 38.8216 9.25065 38.7078 9.72192L34.5621 27.3294C34.4792 27.6691 34.3291 27.9887 34.1207 28.2695C33.9122 28.5502 33.6496 28.7863 33.3484 28.9639C33.0472 29.1415 32.7134 29.2569 32.3669 29.3034C32.0203 29.3499 31.668 29.3264 31.3306 29.2345H31.3254C23.8036 27.1518 15.8573 27.1518 8.33557 29.2345H8.33037C7.993 29.3264 7.64064 29.3498 7.29409 29.3032C6.94755 29.2566 6.61385 29.1411 6.31272 28.9633C6.01159 28.7856 5.74914 28.5494 5.54087 28.2685C5.33261 27.9876 5.18275 27.6678 5.10016 27.3281L5.09756 27.3177L0.970083 9.72322V9.71802C0.857183 9.24702 0.878047 8.75385 1.03032 8.29407C1.1826 7.83429 1.46024 7.42617 1.83196 7.11568C2.20369 6.80519 2.65473 6.60466 3.13428 6.5367C3.61383 6.46873 4.10283 6.53602 4.54619 6.73099L4.55139 6.73359L12.7725 10.3877C12.7758 10.3892 12.7794 10.3896 12.7829 10.389C12.7865 10.3884 12.7897 10.3866 12.7921 10.3838L17.5645 1.78036C17.7891 1.37435 18.1182 1.03581 18.5177 0.799853M15.0522 11.6712C14.7312 12.2334 14.2133 12.6568 13.5985 12.8595C12.9836 13.0622 12.3155 13.0298 11.7231 12.7688L11.7192 12.7675L3.49937 9.11203L3.50067 9.11983L7.62685 26.7143L7.62945 26.7195C7.63097 26.7211 7.63272 26.7224 7.63465 26.7234C7.63653 26.7247 7.63865 26.7256 7.64089 26.726C7.64312 26.7265 7.64542 26.7265 7.64765 26.726C15.6218 24.5185 24.0457 24.5185 32.0198 26.726L31.6726 27.9809L32.0146 26.726H32.0198C32.0224 26.726 32.025 26.726 32.0276 26.7234C32.0291 26.7223 32.0304 26.721 32.0315 26.7195L32.0341 26.7169V26.7143L36.1772 9.11983L36.1785 9.11203L27.9587 12.7662L27.9535 12.7688C27.3611 13.0297 26.6931 13.0617 26.0784 12.8588C25.4638 12.6558 24.9462 12.2323 24.6257 11.6699L24.6179 11.6569L19.8389 3.04175L15.0522 11.6712Z" fill="#808191"/>
<path d="M11.2051 23.09C10.7717 23.09 10.3817 23.0133 10.0351 22.86C9.69508 22.7 9.42508 22.4867 9.22508 22.22C9.02508 21.9467 8.91841 21.6433 8.90508 21.31H10.0851C10.1051 21.5433 10.2151 21.74 10.4151 21.9C10.6217 22.0533 10.8784 22.13 11.1851 22.13C11.5051 22.13 11.7517 22.07 11.9251 21.95C12.1051 21.8233 12.1951 21.6633 12.1951 21.47C12.1951 21.2633 12.0951 21.11 11.8951 21.01C11.7017 20.91 11.3917 20.8 10.9651 20.68C10.5517 20.5667 10.2151 20.4567 9.95508 20.35C9.69508 20.2433 9.46841 20.08 9.27508 19.86C9.08841 19.64 8.99508 19.35 8.99508 18.99C8.99508 18.6967 9.08174 18.43 9.25508 18.19C9.42841 17.9433 9.67508 17.75 9.99508 17.61C10.3217 17.47 10.6951 17.4 11.1151 17.4C11.7417 17.4 12.2451 17.56 12.6251 17.88C13.0117 18.1933 13.2184 18.6233 13.2451 19.17H12.1051C12.0851 18.9233 11.9851 18.7267 11.8051 18.58C11.6251 18.4333 11.3817 18.36 11.0751 18.36C10.7751 18.36 10.5451 18.4167 10.3851 18.53C10.2251 18.6433 10.1451 18.7933 10.1451 18.98C10.1451 19.1267 10.1984 19.25 10.3051 19.35C10.4117 19.45 10.5417 19.53 10.6951 19.59C10.8484 19.6433 11.0751 19.7133 11.3751 19.8C11.7751 19.9067 12.1017 20.0167 12.3551 20.13C12.6151 20.2367 12.8384 20.3967 13.0251 20.61C13.2117 20.8233 13.3084 21.1067 13.3151 21.46C13.3151 21.7733 13.2284 22.0533 13.0551 22.3C12.8817 22.5467 12.6351 22.74 12.3151 22.88C12.0017 23.02 11.6317 23.09 11.2051 23.09ZM16.4369 23.09C15.9169 23.09 15.4469 22.9733 15.0269 22.74C14.6069 22.5 14.2769 22.1667 14.0369 21.74C13.7969 21.3067 13.6769 20.8067 13.6769 20.24C13.6769 19.68 13.8002 19.1833 14.0469 18.75C14.2935 18.3167 14.6302 17.9833 15.0569 17.75C15.4835 17.5167 15.9602 17.4 16.4869 17.4C17.0135 17.4 17.4902 17.5167 17.9169 17.75C18.3435 17.9833 18.6802 18.3167 18.9269 18.75C19.1735 19.1833 19.2969 19.68 19.2969 20.24C19.2969 20.8 19.1702 21.2967 18.9169 21.73C18.6635 22.1633 18.3169 22.5 17.8769 22.74C17.4435 22.9733 16.9635 23.09 16.4369 23.09ZM16.4369 22.1C16.7302 22.1 17.0035 22.03 17.2569 21.89C17.5169 21.75 17.7269 21.54 17.8869 21.26C18.0469 20.98 18.1269 20.64 18.1269 20.24C18.1269 19.84 18.0502 19.5033 17.8969 19.23C17.7435 18.95 17.5402 18.74 17.2869 18.6C17.0335 18.46 16.7602 18.39 16.4669 18.39C16.1735 18.39 15.9002 18.46 15.6469 18.6C15.4002 18.74 15.2035 18.95 15.0569 19.23C14.9102 19.5033 14.8369 19.84 14.8369 20.24C14.8369 20.8333 14.9869 21.2933 15.2869 21.62C15.5935 21.94 15.9769 22.1 16.4369 22.1ZM22.3138 23.09C21.7938 23.09 21.3238 22.9733 20.9038 22.74C20.4838 22.5 20.1538 22.1667 19.9138 21.74C19.6738 21.3067 19.5538 20.8067 19.5538 20.24C19.5538 19.68 19.6772 19.1833 19.9238 18.75C20.1705 18.3167 20.5072 17.9833 20.9338 17.75C21.3605 17.5167 21.8372 17.4 22.3638 17.4C22.8905 17.4 23.3672 17.5167 23.7938 17.75C24.2205 17.9833 24.5572 18.3167 24.8038 18.75C25.0505 19.1833 25.1738 19.68 25.1738 20.24C25.1738 20.8 25.0472 21.2967 24.7938 21.73C24.5405 22.1633 24.1938 22.5 23.7538 22.74C23.3205 22.9733 22.8405 23.09 22.3138 23.09ZM22.3138 22.1C22.6072 22.1 22.8805 22.03 23.1338 21.89C23.3938 21.75 23.6038 21.54 23.7638 21.26C23.9238 20.98 24.0038 20.64 24.0038 20.24C24.0038 19.84 23.9272 19.5033 23.7738 19.23C23.6205 18.95 23.4172 18.74 23.1638 18.6C22.9105 18.46 22.6372 18.39 22.3438 18.39C22.0505 18.39 21.7772 18.46 21.5238 18.6C21.2772 18.74 21.0805 18.95 20.9338 19.23C20.7872 19.5033 20.7138 19.84 20.7138 20.24C20.7138 20.8333 20.8638 21.2933 21.1638 21.62C21.4705 21.94 21.8538 22.1 22.3138 22.1ZM28.5808 17.4C29.0141 17.4 29.4008 17.49 29.7408 17.67C30.0874 17.85 30.3574 18.1167 30.5508 18.47C30.7441 18.8233 30.8408 19.25 30.8408 19.75V23H29.7108V19.92C29.7108 19.4267 29.5874 19.05 29.3408 18.79C29.0941 18.5233 28.7574 18.39 28.3308 18.39C27.9041 18.39 27.5641 18.5233 27.3108 18.79C27.0641 19.05 26.9408 19.4267 26.9408 19.92V23H25.8008V17.49H26.9408V18.12C27.1274 17.8933 27.3641 17.7167 27.6508 17.59C27.9441 17.4633 28.2541 17.4 28.5808 17.4Z" fill="#808191"/>
</svg>
