<svg width="26" height="31" viewBox="0 0 26 31" fill="none" xmlns="http://www.w3.org/2000/svg">
<path d="M6.18403 29.2283L6.17172 29.2369C4.70101 30.2689 2.67066 29.3347 2.52987 27.5194C2.36437 25.3854 2.14389 21.4755 2.14392 15.7898V15.6872V15.6872C2.14388 13.4301 2.14511 11.4637 2.30614 9.82281C2.46939 8.15925 2.80826 6.66959 3.59506 5.45621C5.24038 2.91883 8.40953 2.18634 13.3887 2.16583C18.3738 2.14531 21.5474 2.87432 23.1944 5.4278C23.9801 6.64588 24.3186 8.14245 24.4817 9.81164C24.6427 11.4588 24.644 13.4304 24.6439 15.6883V15.7898C24.6439 21.4755 24.4234 25.3855 24.2579 27.5194C24.1171 29.3347 22.0868 30.2689 20.6161 29.2369L20.6038 29.2284C19.3137 28.346 18.1199 27.3961 17.1896 26.6555L17.173 26.6423C16.7502 26.3057 16.3664 26.0002 16.0655 25.7771C15.5007 25.3585 15.0292 25.0726 14.5922 24.8967C14.1167 24.7052 13.7327 24.6642 13.3939 24.6642C13.0552 24.6642 12.6711 24.7052 12.1956 24.8967C11.7587 25.0726 11.2871 25.3585 10.7224 25.7771L11.4667 26.7813L10.7224 25.7771C10.4214 26.0001 10.0376 26.3057 9.61484 26.6423L9.59823 26.6555C8.66793 27.3961 7.47409 28.346 6.18403 29.2283Z" stroke="#808191" stroke-width="2.5" stroke-linecap="round" stroke-linejoin="round"/>
</svg>
