<svg width="22" height="23" viewBox="0 0 22 23" fill="none" xmlns="http://www.w3.org/2000/svg">
<path d="M10.0147 11.5C10.9665 11.5 11.897 11.2178 12.6884 10.6889C13.4798 10.1601 14.0966 9.40854 14.4609 8.52917C14.8251 7.6498 14.9204 6.68216 14.7347 5.74863C14.549 4.8151 14.0907 3.95759 13.4177 3.28455C12.7446 2.61151 11.8871 2.15316 10.9536 1.96747C10.02 1.78178 9.05242 1.87709 8.17305 2.24133C7.29368 2.60558 6.54207 3.22241 6.01326 4.01382C5.48446 4.80523 5.20221 5.73568 5.20221 6.6875C5.20367 7.96341 5.71116 9.18664 6.61337 10.0888C7.51557 10.991 8.7388 11.4985 10.0147 11.5ZM10.0147 3.25C10.6946 3.25 11.3592 3.45161 11.9245 3.82933C12.4898 4.20704 12.9304 4.74391 13.1905 5.37203C13.4507 6.00015 13.5188 6.69132 13.3862 7.35812C13.2535 8.02493 12.9261 8.63744 12.4454 9.11818C11.9646 9.59892 11.3521 9.92632 10.6853 10.059C10.0185 10.1916 9.32736 10.1235 8.69924 9.86334C8.07111 9.60316 7.53425 9.16257 7.15653 8.59727C6.77882 8.03198 6.57721 7.36738 6.57721 6.6875C6.5783 5.77616 6.94082 4.90245 7.58524 4.25803C8.22966 3.61361 9.10336 3.25109 10.0147 3.25ZM18.1595 17.6875L19.6184 16.2293C19.7436 16.0997 19.8129 15.926 19.8114 15.7457C19.8098 15.5655 19.7375 15.393 19.61 15.2656C19.4826 15.1381 19.3101 15.0658 19.1299 15.0642C18.9496 15.0627 18.7759 15.132 18.6463 15.2572L17.1874 16.7154L15.7285 15.2572C15.5989 15.132 15.4252 15.0627 15.2449 15.0642C15.0647 15.0658 14.8922 15.1381 14.7648 15.2656C14.6373 15.393 14.565 15.5655 14.5634 15.7457C14.5619 15.926 14.6312 16.0997 14.7564 16.2293L16.2153 17.6875L14.7564 19.1457C14.6907 19.2091 14.6384 19.285 14.6023 19.3688C14.5663 19.4527 14.5473 19.5429 14.5465 19.6342C14.5457 19.7255 14.5631 19.816 14.5977 19.9005C14.6323 19.985 14.6833 20.0618 14.7479 20.1263C14.8124 20.1909 14.8892 20.2419 14.9737 20.2765C15.0582 20.3111 15.1487 20.3285 15.24 20.3277C15.3313 20.3269 15.4215 20.3079 15.5054 20.2719C15.5892 20.2359 15.6651 20.1835 15.7285 20.1178L17.1874 18.6596L18.6463 20.1178C18.7759 20.243 18.9496 20.3123 19.1299 20.3108C19.3101 20.3092 19.4826 20.2369 19.61 20.1094C19.7375 19.982 19.8098 19.8095 19.8114 19.6293C19.8129 19.449 19.7436 19.2754 19.6184 19.1457L18.1595 17.6875ZM13.0624 19.75H3.45115C3.33865 19.7507 3.22763 19.7244 3.12739 19.6733C3.02715 19.6222 2.94061 19.5478 2.87502 19.4564C2.81447 19.3771 2.77402 19.2842 2.75714 19.1858C2.74026 19.0874 2.74745 18.9863 2.77808 18.8913C3.11112 17.9125 3.63892 17.0112 4.32965 16.2419C5.02039 15.4726 5.85976 14.8511 6.79717 14.4149C7.73459 13.9787 8.75062 13.7368 9.78402 13.7039C10.8174 13.6709 11.8468 13.8476 12.8101 14.2232C12.9797 14.2901 13.169 14.2869 13.3363 14.2142C13.5036 14.1416 13.6352 14.0054 13.7021 13.8358C13.769 13.6661 13.7658 13.4768 13.6932 13.3095C13.6205 13.1422 13.4844 13.0107 13.3147 12.9438C12.1767 12.4994 10.9604 12.2905 9.73933 12.3296C8.51827 12.3687 7.31784 12.6551 6.21062 13.1714C5.10339 13.6877 4.11239 14.4232 3.29753 15.3335C2.48267 16.2437 1.86088 17.3097 1.46977 18.4671C1.37215 18.7686 1.34779 19.089 1.39872 19.4018C1.44966 19.7146 1.57441 20.0107 1.76265 20.2656C1.95678 20.5315 2.21083 20.7478 2.50419 20.8971C2.79755 21.0464 3.12197 21.1245 3.45115 21.125H13.0624C13.2447 21.125 13.4196 21.0526 13.5485 20.9236C13.6775 20.7947 13.7499 20.6198 13.7499 20.4375C13.7499 20.2552 13.6775 20.0803 13.5485 19.9514C13.4196 19.8224 13.2447 19.75 13.0624 19.75Z" fill="#BE1919"/>
</svg>
