<svg width="79" height="92" viewBox="0 0 79 92" fill="none" xmlns="http://www.w3.org/2000/svg">
<path fill-rule="evenodd" clip-rule="evenodd" d="M0.762146 73.4086C4.65579 71.3323 9.18315 69.5676 13.6578 67.9605C25.3926 63.7504 29.1512 60.199 29.1512 52.6034C29.1512 50.5339 28.4124 49.71 27.4586 48.6464C26.3108 47.3663 24.8515 45.7391 23.9941 41.1754C23.7387 39.8169 23.0965 39.5141 22.3736 39.1732C21.2508 38.6437 19.9332 38.0224 19.5667 33.2113C19.5667 30.0606 21.2967 29.2776 21.2967 29.2776C21.2967 29.2776 20.4234 24.6069 20.0697 21.0186C19.7933 18.0845 21.3023 12.5709 26.9182 9.08857C28.5334 8.11599 29.9258 7.05773 31.2896 6.02124C35.4933 2.82625 39.425 -0.161976 48.7737 0.203206C43.1136 2.70437 44.3572 5.19633 46.1979 6.76244C56.7111 9.22676 59.2703 17.26 58.911 21.0232C58.5628 24.6115 57.6894 29.2822 57.6894 29.2822C57.6894 29.2822 59.4251 30.0652 59.4251 33.2159C59.0518 38.0271 57.7335 38.6484 56.61 39.1778C55.8867 39.5187 55.2441 39.8215 54.9865 41.18C54.1264 45.7421 52.6698 47.3698 51.5244 48.6497C50.5721 49.7139 49.8349 50.5377 49.8349 52.608C49.8349 60.2082 53.5825 63.755 65.3173 67.9651C69.7981 69.5719 74.3317 71.3373 78.2296 73.4153C68.9066 84.3747 55.0146 91.3271 39.4987 91.3271C23.9797 91.3271 10.0851 84.3719 0.762146 73.4086Z" fill="#C6C6C6"/>
</svg>
