<svg width="36" height="36" viewBox="0 0 36 36" fill="none" xmlns="http://www.w3.org/2000/svg">
<path d="M29.25 27.3107V27.75H6.75V27.3107L9.53033 24.5303L9.75 24.3107V24V16.5C9.75 12.1416 12.0333 8.67138 15.9229 7.74979L16.5 7.61306V7.02V6C16.5 5.16921 17.1692 4.5 18 4.5C18.8308 4.5 19.5 5.16921 19.5 6V7.02V7.61259L20.0765 7.74966C23.9522 8.67115 26.25 12.1572 26.25 16.5V24V24.3107L26.4697 24.5303L29.25 27.3107ZM20.1203 30.75C19.8091 31.6209 18.9733 32.25 18 32.25C17.0165 32.25 16.1861 31.622 15.878 30.75H20.1203Z" stroke="#333333" stroke-width="1.5"/>
<circle cx="25.5" cy="9" r="6" fill="#FF3300"/>
</svg>
