<svg width="18" height="20" viewBox="0 0 18 20" fill="none" xmlns="http://www.w3.org/2000/svg">
<path d="M14.5 6.83329H16.3333C16.8396 6.83329 17.25 7.2437 17.25 7.74996V18.75C17.25 19.2562 16.8396 19.6666 16.3333 19.6666H1.66667C1.16041 19.6666 0.75 19.2562 0.75 18.75V7.74996C0.75 7.2437 1.16041 6.83329 1.66667 6.83329H3.5V5.91663C3.5 2.87906 5.96243 0.416626 9 0.416626C12.0376 0.416626 14.5 2.87906 14.5 5.91663V6.83329ZM2.58333 8.66663V17.8333H15.4167V8.66663H2.58333ZM8.08333 12.3333H9.91667V14.1666H8.08333V12.3333ZM4.41667 12.3333H6.25V14.1666H4.41667V12.3333ZM11.75 12.3333H13.5833V14.1666H11.75V12.3333ZM12.6667 6.83329V5.91663C12.6667 3.89158 11.025 2.24996 9 2.24996C6.97496 2.24996 5.33333 3.89158 5.33333 5.91663V6.83329H12.6667Z" fill="#022D4F"/>
</svg>
