<svg width="19" height="19" viewBox="0 0 19 19" fill="none" xmlns="http://www.w3.org/2000/svg">
<path d="M11.0268 14.1043L7.17777 12.0047C6.50866 12.7198 5.55648 13.1667 4.49992 13.1667C2.47487 13.1667 0.833252 11.525 0.833252 9.50004C0.833252 7.475 2.47487 5.83337 4.49992 5.83337C5.55642 5.83337 6.50856 6.28021 7.17767 6.99521L11.0268 4.89574C10.9548 4.60908 10.9166 4.30902 10.9166 4.00004C10.9166 1.975 12.5582 0.333374 14.5833 0.333374C16.6083 0.333374 18.2499 1.975 18.2499 4.00004C18.2499 6.02509 16.6083 7.66671 14.5833 7.66671C13.5267 7.66671 12.5746 7.21984 11.9054 6.5048L8.05638 8.60427C8.12836 8.89092 8.16659 9.19103 8.16659 9.50004C8.16659 9.80905 8.12837 10.1091 8.05641 10.3957L11.9055 12.4952C12.5746 11.7802 13.5267 11.3334 14.5833 11.3334C16.6083 11.3334 18.2499 12.975 18.2499 15C18.2499 17.025 16.6083 18.6667 14.5833 18.6667C12.5582 18.6667 10.9166 17.025 10.9166 15C10.9166 14.691 10.9548 14.3909 11.0268 14.1043ZM4.49992 11.3334C5.51244 11.3334 6.33325 10.5126 6.33325 9.50004C6.33325 8.48749 5.51244 7.66671 4.49992 7.66671C3.4874 7.66671 2.66659 8.48749 2.66659 9.50004C2.66659 10.5126 3.4874 11.3334 4.49992 11.3334ZM14.5833 5.83337C15.5958 5.83337 16.4166 5.01256 16.4166 4.00004C16.4166 2.98752 15.5958 2.16671 14.5833 2.16671C13.5707 2.16671 12.7499 2.98752 12.7499 4.00004C12.7499 5.01256 13.5707 5.83337 14.5833 5.83337ZM14.5833 16.8334C15.5958 16.8334 16.4166 16.0126 16.4166 15C16.4166 13.9875 15.5958 13.1667 14.5833 13.1667C13.5707 13.1667 12.7499 13.9875 12.7499 15C12.7499 16.0126 13.5707 16.8334 14.5833 16.8334Z" fill="#022D4F"/>
</svg>
