<svg width="27" height="22" viewBox="0 0 27 22" fill="none" xmlns="http://www.w3.org/2000/svg">
<path d="M26.6249 11C26.6249 11.2901 26.5096 11.5683 26.3045 11.7734C26.0994 11.9785 25.8212 12.0937 25.5311 12.0937H4.10867L12.0862 20.0699C12.1878 20.1715 12.2684 20.2922 12.3234 20.425C12.3784 20.5577 12.4067 20.7 12.4067 20.8437C12.4067 20.9875 12.3784 21.1298 12.3234 21.2625C12.2684 21.3953 12.1878 21.516 12.0862 21.6176C11.9846 21.7192 11.864 21.7998 11.7312 21.8548C11.5984 21.9098 11.4561 21.9381 11.3124 21.9381C11.1687 21.9381 11.0264 21.9098 10.8936 21.8548C10.7608 21.7998 10.6402 21.7192 10.5386 21.6176L0.694806 11.7738C0.593113 11.6722 0.512439 11.5516 0.457397 11.4188C0.402354 11.2861 0.374023 11.1437 0.374023 11C0.374023 10.8563 0.402354 10.7139 0.457397 10.5812C0.512439 10.4484 0.593113 10.3277 0.694806 10.2262L10.5386 0.38242C10.7438 0.177188 11.0221 0.0618896 11.3124 0.0618896C11.6026 0.0618897 11.881 0.177188 12.0862 0.38242C12.2914 0.587652 12.4067 0.866006 12.4067 1.15625C12.4067 1.44649 12.2914 1.72484 12.0862 1.93008L4.10867 9.90625H25.5311C25.8212 9.90625 26.0994 10.0215 26.3045 10.2266C26.5096 10.4317 26.6249 10.7099 26.6249 11Z" fill="#FF3300"/>
</svg>
