<svg width="19" height="19" viewBox="0 0 19 19" fill="none" xmlns="http://www.w3.org/2000/svg">
<path d="M0.75 6.875C0.75 5.22475 0.75 4.4005 1.26275 3.88775C1.7755 3.375 2.59975 3.375 4.25 3.375H14.75C16.4003 3.375 17.2245 3.375 17.7373 3.88775C18.25 4.4005 18.25 5.22475 18.25 6.875C18.25 7.28713 18.25 7.49363 18.1223 7.62225C17.9936 7.75 17.7863 7.75 17.375 7.75H1.625C1.21288 7.75 1.00637 7.75 0.87775 7.62225C0.75 7.49363 0.75 7.28625 0.75 6.875Z" fill="#8B8B8B"/>
<path fill-rule="evenodd" clip-rule="evenodd" d="M0.75 14.75C0.75 16.4003 0.75 17.2245 1.26275 17.7373C1.7755 18.25 2.59975 18.25 4.25 18.25H14.75C16.4003 18.25 17.2245 18.25 17.7373 17.7373C18.25 17.2245 18.25 16.4003 18.25 14.75V10.375C18.25 9.96288 18.25 9.75637 18.1223 9.62775C17.9936 9.5 17.7863 9.5 17.375 9.5H1.625C1.21288 9.5 1.00637 9.5 0.87775 9.62775C0.75 9.75637 0.75 9.96375 0.75 10.375V14.75ZM5.125 12.125C5.125 11.7129 5.125 11.5064 5.25275 11.3778C5.38138 11.25 5.58875 11.25 6 11.25H7.75C8.16213 11.25 8.36863 11.25 8.49725 11.3778C8.625 11.5064 8.625 11.7129 8.625 12.125C8.625 12.5371 8.625 12.7436 8.49725 12.8723C8.36863 13 8.16125 13 7.75 13H6C5.58788 13 5.38138 13 5.25275 12.8723C5.125 12.7436 5.125 12.5363 5.125 12.125ZM5.25275 14.8778C5.125 15.0064 5.125 15.2138 5.125 15.625C5.125 16.0363 5.125 16.2436 5.25275 16.3723C5.38138 16.5 5.58875 16.5 6 16.5H7.75C8.16213 16.5 8.36863 16.5 8.49725 16.3723C8.625 16.2436 8.625 16.0363 8.625 15.625C8.625 15.2138 8.625 15.0064 8.49725 14.8778C8.36863 14.75 8.16125 14.75 7.75 14.75H6C5.58788 14.75 5.38138 14.75 5.25275 14.8778ZM10.375 12.125C10.375 11.7129 10.375 11.5064 10.5028 11.3778C10.6314 11.25 10.8388 11.25 11.25 11.25H13C13.4121 11.25 13.6186 11.25 13.7473 11.3778C13.875 11.5064 13.875 11.7129 13.875 12.125C13.875 12.5371 13.875 12.7436 13.7473 12.8723C13.6186 13 13.4113 13 13 13H11.25C10.8379 13 10.6314 13 10.5028 12.8723C10.375 12.7436 10.375 12.5363 10.375 12.125ZM10.5028 14.8778C10.375 15.0064 10.375 15.2138 10.375 15.625C10.375 16.0363 10.375 16.2436 10.5028 16.3723C10.6314 16.5 10.8379 16.5 11.25 16.5H13C13.4121 16.5 13.6186 16.5 13.7473 16.3723C13.875 16.2436 13.875 16.0363 13.875 15.625C13.875 15.2138 13.875 15.0064 13.7473 14.8778C13.6186 14.75 13.4113 14.75 13 14.75H11.25C10.8379 14.75 10.6314 14.75 10.5028 14.8778Z" fill="#8B8B8B"/>
<path d="M5.125 1.625V4.25M13.875 1.625V4.25" stroke="#8B8B8B" stroke-width="1.75" stroke-linecap="round"/>
</svg>
