<svg width="123" height="123" viewBox="0 0 123 123" fill="none" xmlns="http://www.w3.org/2000/svg">
<g filter="url(#filter0_d_14_1680)">
<circle cx="61.4989" cy="57.4999" r="50.8271" fill="white"/>
<path fill-rule="evenodd" clip-rule="evenodd" d="M22.7621 90.4086C26.6558 88.3323 31.1832 86.5676 35.6578 84.9605C47.3926 80.7504 51.1512 77.199 51.1512 69.6034C51.1512 67.5339 50.4124 66.71 49.4586 65.6464C48.3108 64.3663 46.8515 62.7391 45.9941 58.1754C45.7387 56.8169 45.0965 56.5141 44.3736 56.1732C43.2508 55.6437 41.9332 55.0224 41.5667 50.2113C41.5667 47.0606 43.2967 46.2776 43.2967 46.2776C43.2967 46.2776 42.4234 41.6069 42.0697 38.0186C41.7933 35.0845 43.3023 29.5709 48.9182 26.0886C50.5334 25.116 51.9258 24.0577 53.2896 23.0212C57.4933 19.8263 61.425 16.838 70.7737 17.2032C65.1136 19.7044 66.3572 22.1963 68.1979 23.7624C78.7111 26.2268 81.2703 34.26 80.911 38.0232C80.5628 41.6115 79.6894 46.2822 79.6894 46.2822C79.6894 46.2822 81.4251 47.0652 81.4251 50.2159C81.0518 55.0271 79.7335 55.6484 78.61 56.1778C77.8867 56.5187 77.2441 56.8215 76.9865 58.18C76.1264 62.7421 74.6698 64.3698 73.5244 65.6497C72.5721 66.7139 71.8349 67.5377 71.8349 69.608C71.8349 77.2082 75.5825 80.755 87.3173 84.9651C91.7981 86.5719 96.3317 88.3373 100.23 90.4153C90.9066 101.375 77.0146 108.327 61.4987 108.327C45.9797 108.327 32.0851 101.372 22.7621 90.4086Z" fill="white"/>
<path fill-rule="evenodd" clip-rule="evenodd" d="M22.7621 90.4086C26.6558 88.3323 31.1832 86.5676 35.6578 84.9605C47.3926 80.7504 51.1512 77.199 51.1512 69.6034C51.1512 67.5339 50.4124 66.71 49.4586 65.6464C48.3108 64.3663 46.8515 62.7391 45.9941 58.1754C45.7387 56.8169 45.0965 56.5141 44.3736 56.1732C43.2508 55.6437 41.9332 55.0224 41.5667 50.2113C41.5667 47.0606 43.2967 46.2776 43.2967 46.2776C43.2967 46.2776 42.4234 41.6069 42.0697 38.0186C41.7933 35.0845 43.3023 29.5709 48.9182 26.0886C50.5334 25.116 51.9258 24.0577 53.2896 23.0212C57.4933 19.8263 61.425 16.838 70.7737 17.2032C65.1136 19.7044 66.3572 22.1963 68.1979 23.7624C78.7111 26.2268 81.2703 34.26 80.911 38.0232C80.5628 41.6115 79.6894 46.2822 79.6894 46.2822C79.6894 46.2822 81.4251 47.0652 81.4251 50.2159C81.0518 55.0271 79.7335 55.6484 78.61 56.1778C77.8867 56.5187 77.2441 56.8215 76.9865 58.18C76.1264 62.7421 74.6698 64.3698 73.5244 65.6497C72.5721 66.7139 71.8349 67.5377 71.8349 69.608C71.8349 77.2082 75.5825 80.755 87.3173 84.9651C91.7981 86.5719 96.3317 88.3373 100.23 90.4153C90.9066 101.375 77.0146 108.327 61.4987 108.327C45.9797 108.327 32.0851 101.372 22.7621 90.4086Z" fill="#C6C6C6"/>
</g>
<defs>
<filter id="filter0_d_14_1680" x="0.671875" y="0.672852" width="121.654" height="121.654" filterUnits="userSpaceOnUse" color-interpolation-filters="sRGB">
<feFlood flood-opacity="0" result="BackgroundImageFix"/>
<feColorMatrix in="SourceAlpha" type="matrix" values="0 0 0 0 0 0 0 0 0 0 0 0 0 0 0 0 0 0 127 0" result="hardAlpha"/>
<feOffset dy="4"/>
<feGaussianBlur stdDeviation="5"/>
<feComposite in2="hardAlpha" operator="out"/>
<feColorMatrix type="matrix" values="0 0 0 0 0 0 0 0 0 0 0 0 0 0 0 0 0 0 0.15 0"/>
<feBlend mode="normal" in2="BackgroundImageFix" result="effect1_dropShadow_14_1680"/>
<feBlend mode="normal" in="SourceGraphic" in2="effect1_dropShadow_14_1680" result="shape"/>
</filter>
</defs>
</svg>
