<svg width="35" height="35" viewBox="0 0 35 35" fill="none" xmlns="http://www.w3.org/2000/svg">
<g clip-path="url(#clip0_305_1218)">
<path fill-rule="evenodd" clip-rule="evenodd" d="M17.5 19.5621L25.7498 27.8119C26.0248 28.0776 26.3932 28.2246 26.7756 28.2212C27.158 28.2179 27.5237 28.0646 27.7941 27.7942C28.0645 27.5238 28.2179 27.158 28.2212 26.7756C28.2245 26.3933 28.0775 26.0249 27.8119 25.7498L19.5621 17.5001L27.8119 9.25026C28.0775 8.97522 28.2245 8.60684 28.2212 8.22447C28.2179 7.8421 28.0645 7.47633 27.7941 7.20595C27.5237 6.93556 27.158 6.78219 26.7756 6.77886C26.3932 6.77554 26.0248 6.92253 25.7498 7.18818L17.5 15.438L9.25021 7.18818C8.97393 6.9291 8.60769 6.78767 8.22899 6.79382C7.85028 6.79997 7.48883 6.95322 7.2211 7.22113C6.95338 7.48904 6.80039 7.85061 6.79451 8.22932C6.78863 8.60802 6.93031 8.97416 7.18959 9.25026L15.4379 17.5001L7.18813 25.7498C7.04885 25.8844 6.93775 26.0453 6.86132 26.2232C6.78489 26.4011 6.74466 26.5925 6.74297 26.7861C6.74129 26.9798 6.77819 27.1718 6.85152 27.351C6.92484 27.5303 7.03313 27.6931 7.17006 27.83C7.30698 27.9669 7.46981 28.0752 7.64903 28.1485C7.82826 28.2219 8.02029 28.2588 8.21392 28.2571C8.40756 28.2554 8.59892 28.2152 8.77685 28.1387C8.95477 28.0623 9.11569 27.9512 9.25021 27.8119L17.5 19.5621Z" fill="black"/>
</g>
<defs>
<clipPath id="clip0_305_1218">
<rect width="35" height="35" fill="white"/>
</clipPath>
</defs>
</svg>
