<svg width="22" height="18" viewBox="0 0 22 18" fill="none" xmlns="http://www.w3.org/2000/svg">
<path fill-rule="evenodd" clip-rule="evenodd" d="M1.24927 10.3668H17.0384L11.6752 15.6704C11.2018 16.1534 11.2118 16.9255 11.6902 17.4024C12.1724 17.8755 12.9532 17.8854 13.4417 17.4172L20.9373 10.0049C21.1722 9.77383 21.3034 9.46004 21.3034 9.13637V9.13143C21.3034 8.97206 21.2696 8.80776 21.2059 8.65827C21.1422 8.50879 21.0498 8.37413 20.9373 8.25801L13.4417 0.845661C12.9482 0.377448 12.1724 0.387331 11.6902 0.860486C11.2068 1.33735 11.2018 2.10947 11.6752 2.5925L17.0384 7.89604H1.24927C0.560923 7.89604 0 8.45073 0 9.13143C0 9.81213 0.560923 10.3668 1.24927 10.3668Z" fill="#FF3300"/>
</svg>
