<svg width="10" height="10" viewBox="0 0 10 10" fill="none" xmlns="http://www.w3.org/2000/svg">
<path d="M5 0.125C2.30773 0.125 0.125 2.30773 0.125 5C0.125 7.69227 2.30773 9.875 5 9.875C7.69227 9.875 9.875 7.69227 9.875 5C9.875 2.30773 7.69227 0.125 5 0.125ZM7.25 5.75H5C4.90054 5.75 4.80516 5.71049 4.73484 5.64017C4.66451 5.56984 4.625 5.47446 4.625 5.375V2C4.625 1.90054 4.66451 1.80516 4.73484 1.73484C4.80516 1.66451 4.90054 1.625 5 1.625C5.09946 1.625 5.19484 1.66451 5.26517 1.73484C5.33549 1.80516 5.375 1.90054 5.375 2V5H7.25C7.34946 5 7.44484 5.03951 7.51517 5.10983C7.58549 5.18016 7.625 5.27554 7.625 5.375C7.625 5.47446 7.58549 5.56984 7.51517 5.64017C7.44484 5.71049 7.34946 5.75 7.25 5.75Z" fill="#FF3300"/>
</svg>
