<svg width="22" height="20" viewBox="0 0 22 20" fill="none" xmlns="http://www.w3.org/2000/svg">
<mask id="path-1-inside-1_540_660" fill="white">
<path d="M14.4112 7.71457L13.5656 7.57401C13.5452 7.69678 13.5517 7.82253 13.5848 7.9425C13.6179 8.06247 13.6768 8.1738 13.7572 8.26874C13.8377 8.36368 13.9379 8.43995 14.0508 8.49225C14.1638 8.54456 14.2867 8.57164 14.4112 8.57161V7.71457ZM1.84118 7.71457V6.85752C1.61387 6.85752 1.39588 6.94781 1.23515 7.10854C1.07443 7.26927 0.984131 7.48726 0.984131 7.71457H1.84118ZM4.12664 19.9989H17.108V18.2848H4.12664V19.9989ZM18.4793 6.85752H14.4112V8.57161H18.4793V6.85752ZM15.2568 7.85512L16.1779 2.33002L14.4866 2.04777L13.5656 7.57401L15.2568 7.85512ZM14.2055 0.00114265H13.961V1.71524H14.2044L14.2055 0.00114265ZM10.3945 1.9095L7.52054 6.22102L8.94667 7.17177L11.8206 2.86025L10.3945 1.9095ZM6.3321 6.85752H1.84118V8.57161H6.3321V6.85752ZM0.984131 7.71457V16.8564H2.69823V7.71457H0.984131ZM20.19 17.4735L21.5613 10.6171L19.8814 10.28L18.5102 17.1364L20.19 17.4735ZM7.52054 6.22102C7.39016 6.41675 7.21346 6.57612 7.00614 6.68715C6.79882 6.79819 6.56729 6.85632 6.3321 6.85638V8.57047C7.38342 8.57047 8.36388 8.04596 8.94667 7.17177L7.52054 6.22102ZM16.1779 2.33002C16.2255 2.04362 16.2102 1.74914 16.133 1.46926C16.0558 1.18937 15.9186 0.929648 15.7309 0.708138C15.5432 0.486629 15.3095 0.308644 15.0461 0.186554C14.7827 0.0644626 14.4958 0.00119335 14.2055 0.00114265L14.2044 1.71524C14.2458 1.71534 14.2878 1.72445 14.3254 1.74193C14.3629 1.75941 14.3962 1.78485 14.423 1.81648C14.4497 1.84812 14.4693 1.88519 14.4803 1.92512C14.4912 1.96506 14.4934 2.00691 14.4866 2.04777L16.1779 2.33002ZM18.4793 8.57047C19.3821 8.57047 20.0563 9.39552 19.8803 10.2789L21.5613 10.616C21.6522 10.1601 21.6409 9.68863 21.5281 9.23769C21.4154 8.78675 21.204 8.36644 20.9092 8.00705C20.6144 7.64767 20.2435 7.35815 19.8234 7.15937C19.4032 6.96059 18.9441 6.85749 18.4793 6.85752V8.57047ZM17.108 19.9989C17.8345 19.999 18.5385 19.7464 19.1004 19.2859C19.6623 18.8255 20.0473 18.1846 20.19 17.4723L18.5102 17.1352C18.4454 17.4593 18.2703 17.7509 18.0146 17.9603C17.7589 18.1697 17.4385 18.2851 17.108 18.2848V19.9989ZM13.961 0.00114265C13.2555 0.0011939 12.561 0.174261 11.939 0.507166C11.3171 0.840072 10.7869 1.32138 10.3956 1.90836L11.8206 2.86025C12.0555 2.5079 12.3738 2.21788 12.7472 2.01812C13.1206 1.81837 13.5375 1.71508 13.961 1.71524V0.00114265ZM4.12664 18.2848C3.33815 18.2848 2.69823 17.6449 2.69823 16.8564H0.984131C0.984131 17.6898 1.31522 18.4892 1.90455 19.0785C2.49388 19.6678 3.29319 19.9989 4.12664 19.9989V18.2848Z"/>
</mask>
<path d="M20.6233 10.9383L21.4632 11.1062L21.6593 10.1257L20.8194 9.95768L20.6233 10.9383ZM17.608 19.9989V18.2848H16.608V19.9989H17.608ZM3.62664 18.2848V19.9989H4.62664V18.2848H3.62664ZM16.2602 1.83685L14.5689 1.55459L14.4043 2.54095L16.0956 2.8232L16.2602 1.83685ZM13.461 0.00114265V1.71524H14.461V0.00114265H13.461ZM14.7044 1.71557L14.7055 0.0014758L13.7055 0.000809496L13.7044 1.7149L14.7044 1.71557ZM7.24319 6.63704L8.66932 7.58779L9.22402 6.75574L7.79789 5.80499L7.24319 6.63704ZM0.984131 17.3564H2.69823V16.3564H0.984131V17.3564ZM14.4112 7.71457H15.4112V6.86706L14.5752 6.7281L14.4112 7.71457ZM13.5656 7.57401L12.5792 7.40961L12.5791 7.41001L13.5656 7.57401ZM1.84118 7.71457V8.71457H2.84118V7.71457H1.84118ZM21.5613 10.616L21.3646 11.5964L22.3461 11.7933L22.5419 10.8116L21.5613 10.616ZM17.108 19.9989L17.1082 18.9989H17.108V19.9989ZM17.108 18.2848L17.109 17.2848H17.108V18.2848ZM14.4112 6.85752V5.85752H13.4112V6.85752H14.4112ZM18.4793 8.57161V9.57161H19.4793V8.57161H18.4793ZM15.2568 7.85512L15.0929 8.84159L16.0789 9.00548L16.2432 8.01955L15.2568 7.85512ZM16.1779 2.33002L17.1642 2.49446L17.1643 2.49402L16.1779 2.33002ZM14.4866 2.04777L15.473 2.21217L15.4731 2.21177L14.4866 2.04777ZM14.2055 0.00114265L14.2057 -0.998857H14.2055V0.00114265ZM13.961 0.00114265V-0.998857H13.9609L13.961 0.00114265ZM13.961 1.71524L13.9606 2.71524H13.961V1.71524ZM14.2044 1.71524L14.2068 0.715237H14.2044V1.71524ZM10.3945 1.9095L10.9492 1.07745L10.1171 0.522716L9.56242 1.35485L10.3945 1.9095ZM7.52054 6.22102L6.68846 5.66637L6.68829 5.66662L7.52054 6.22102ZM8.94667 7.17177L9.77872 7.72647L9.77875 7.72642L8.94667 7.17177ZM6.3321 6.85752H7.3321V5.85752H6.3321V6.85752ZM1.84118 8.57161H0.841178V9.57161H1.84118V8.57161ZM6.3321 8.57161V9.57161H7.3321V8.57161H6.3321ZM0.984131 16.8564H-0.0158691H0.984131ZM2.69823 7.71457H3.69823V6.71457H2.69823V7.71457ZM20.19 17.4735L19.9932 18.4539L20.9743 18.6508L21.1706 17.6696L20.19 17.4735ZM21.5613 10.6171L22.5418 10.8132L22.7378 9.83327L21.758 9.63665L21.5613 10.6171ZM19.8814 10.28L20.0782 9.29954L19.0971 9.10265L18.9009 10.0839L19.8814 10.28ZM18.5102 17.1364L17.5296 16.9403L17.3336 17.9202L18.3134 18.1168L18.5102 17.1364ZM6.3321 6.85638L6.33185 5.85638L5.3321 5.85663V6.85638H6.3321ZM6.3321 8.57047H5.3321V9.57047H6.3321V8.57047ZM18.4793 8.57047H17.4793V9.57047H18.4793V8.57047ZM19.8803 10.2789L18.8996 10.0835L18.7044 11.063L19.6837 11.2593L19.8803 10.2789ZM20.19 17.4723L21.1705 17.6687L21.3668 16.6886L20.3867 16.4919L20.19 17.4723ZM18.5102 17.1352L18.7069 16.1548L17.7257 15.9579L17.5296 16.9392L18.5102 17.1352ZM10.3956 1.90836L9.56358 1.35369L9.00945 2.18496L9.84018 2.7399L10.3956 1.90836ZM14.5752 6.7281L13.7295 6.58754L13.4016 8.56048L14.2472 8.70103L14.5752 6.7281ZM12.5791 7.41001C12.5349 7.67603 12.5491 7.94849 12.6209 8.20845L14.5488 7.67655C14.5544 7.69656 14.5554 7.71754 14.552 7.73801L12.5791 7.41001ZM12.6209 8.20845C12.6926 8.46842 12.8201 8.70964 12.9944 8.91535L14.5201 7.62213C14.5335 7.63796 14.5433 7.65653 14.5488 7.67655L12.6209 8.20845ZM12.9944 8.91535C13.1688 9.12106 13.3859 9.28632 13.6306 9.39966L14.4711 7.58485C14.4899 7.59357 14.5067 7.6063 14.5201 7.62213L12.9944 8.91535ZM13.6306 9.39966C13.8753 9.51299 14.1417 9.57167 14.4114 9.57161L14.411 7.57161C14.4318 7.57161 14.4523 7.57612 14.4711 7.58485L13.6306 9.39966ZM15.4112 8.57161V7.71457H13.4112V8.57161H15.4112ZM2.84118 7.71457V6.85752H0.841178V7.71457H2.84118ZM1.84118 5.85752C1.34866 5.85752 0.87631 6.05317 0.528047 6.40144L1.94226 7.81565C1.91545 7.84246 1.87909 7.85752 1.84118 7.85752V5.85752ZM0.528047 6.40144C0.179784 6.7497 -0.0158691 7.22205 -0.0158691 7.71457H1.98413C1.98413 7.75248 1.96907 7.78884 1.94226 7.81565L0.528047 6.40144ZM0.984131 8.71457H1.84118V6.71457H0.984131V8.71457ZM4.12664 20.9989H17.108V18.9989H4.12664V20.9989ZM17.108 17.2848H4.12664V19.2848H17.108V17.2848ZM18.4793 5.85752H14.4112V7.85752H18.4793V5.85752ZM13.4112 6.85752V8.57161H15.4112V6.85752H13.4112ZM14.4112 9.57161H18.4793V7.57161H14.4112V9.57161ZM19.4793 8.57161V6.85752H17.4793V8.57161H19.4793ZM16.2432 8.01955L17.1642 2.49446L15.1915 2.16559L14.2704 7.69069L16.2432 8.01955ZM13.5002 1.88337L12.5792 7.40961L14.552 7.73841L15.473 2.21217L13.5002 1.88337ZM13.4016 8.56048L15.0929 8.84159L15.4208 6.86866L13.7295 6.58754L13.4016 8.56048ZM14.2055 -0.998857H13.961V1.00114H14.2055V-0.998857ZM13.961 2.71524H14.2044V0.715237H13.961V2.71524ZM9.56242 1.35485L6.68846 5.66637L8.35263 6.77567L11.2266 2.46415L9.56242 1.35485ZM9.77875 7.72642L12.6527 3.4149L10.9885 2.3056L8.11459 6.61712L9.77875 7.72642ZM12.3753 2.0282L10.9492 1.07745L9.83981 2.74155L11.2659 3.6923L12.3753 2.0282ZM6.3321 5.85752H1.84118V7.85752H6.3321V5.85752ZM0.841178 6.85752V8.57161H2.84118V6.85752H0.841178ZM1.84118 9.57161H6.3321V7.57161H1.84118V9.57161ZM7.3321 8.57161V6.85752H5.3321V8.57161H7.3321ZM-0.0158691 7.71457V16.8564H1.98413V7.71457H-0.0158691ZM3.69823 16.8564V7.71457H1.69822V16.8564H3.69823ZM2.69823 6.71457H0.984131V8.71457H2.69823V6.71457ZM21.1706 17.6696L22.5418 10.8132L20.5807 10.421L19.2094 17.2774L21.1706 17.6696ZM21.758 9.63665L20.0782 9.29954L19.6847 11.2604L21.3645 11.5976L21.758 9.63665ZM18.9009 10.0839L17.5296 16.9403L19.4908 17.3325L20.862 10.4761L18.9009 10.0839ZM18.3134 18.1168L19.9932 18.4539L20.3867 16.493L18.7069 16.1559L18.3134 18.1168ZM6.68829 5.66662C6.65057 5.72325 6.5984 5.77114 6.53401 5.80562L7.47827 7.56868C7.82852 7.38109 8.12975 7.11025 8.35279 6.77542L6.68829 5.66662ZM6.53401 5.80562C6.47183 5.83892 6.40239 5.85636 6.33185 5.85638L6.33235 7.85638C6.73218 7.85628 7.1258 7.75745 7.47827 7.56868L6.53401 5.80562ZM5.3321 6.85638V8.57047H7.3321V6.85638H5.3321ZM6.3321 9.57047C7.71751 9.57047 9.01032 8.87907 9.77872 7.72647L8.11462 6.61707C7.71744 7.21284 7.04932 7.57047 6.3321 7.57047V9.57047ZM17.1643 2.49402C17.2357 2.06454 17.2128 1.62338 17.097 1.20339L15.169 1.73512C15.2075 1.87491 15.2152 2.0227 15.1914 2.16602L17.1643 2.49402ZM17.097 1.20339C16.9812 0.783552 16.7754 0.393954 16.4938 0.0616758L14.9679 1.3546C15.0618 1.46534 15.1304 1.59519 15.169 1.73512L17.097 1.20339ZM16.4938 0.0616758C16.2123 -0.270601 15.8618 -0.537588 15.4666 -0.720731L14.6256 1.09384C14.7573 1.15488 14.8741 1.24386 14.9679 1.3546L16.4938 0.0616758ZM15.4666 -0.720731C15.0715 -0.903874 14.6412 -0.998781 14.2057 -0.998857L14.2053 1.00114C14.3505 1.00117 14.4939 1.0328 14.6256 1.09384L15.4666 -0.720731ZM14.2019 2.71523C14.1024 2.71499 14.0009 2.69391 13.9033 2.64849L14.7475 0.835368C14.5748 0.754986 14.3892 0.715688 14.2068 0.71524L14.2019 2.71523ZM13.9033 2.64849C13.8094 2.60478 13.7262 2.54117 13.6593 2.46207L15.1867 1.1709C15.0663 1.02853 14.9164 0.914045 14.7475 0.835368L13.9033 2.64849ZM13.6593 2.46207C13.5924 2.38298 13.5436 2.29029 13.5161 2.19043L15.4444 1.65982C15.395 1.48009 15.307 1.31326 15.1867 1.1709L13.6593 2.46207ZM13.5161 2.19043C13.4886 2.09058 13.4832 1.98594 13.5002 1.88377L15.4731 2.21177C15.5037 2.02788 15.4939 1.83954 15.4444 1.65982L13.5161 2.19043ZM18.4793 9.57047C18.7497 9.57047 18.9526 9.81711 18.8996 10.0835L20.861 10.4742C21.1599 8.97393 20.0145 7.57047 18.4793 7.57047V9.57047ZM19.6837 11.2593L21.3646 11.5964L21.7579 9.63548L20.0769 9.29837L19.6837 11.2593ZM22.5419 10.8116C22.6618 10.2107 22.6469 9.58958 22.4982 8.9951L20.558 9.48028C20.6349 9.78768 20.6426 10.1095 20.5806 10.4203L22.5419 10.8116ZM22.4982 8.9951C22.3496 8.40067 22.0709 7.84661 21.6823 7.37286L20.136 8.64125C20.337 8.88628 20.4811 9.17284 20.558 9.48028L22.4982 8.9951ZM21.6823 7.37286C21.2937 6.89911 20.8049 6.51746 20.251 6.25542L19.3957 8.06331C19.6822 8.19884 19.935 8.39623 20.136 8.64125L21.6823 7.37286ZM20.251 6.25542C19.6971 5.99339 19.092 5.85749 18.4793 5.85752L18.4794 7.85752C18.7963 7.8575 19.1092 7.92779 19.3957 8.06331L20.251 6.25542ZM17.4793 6.85752V8.57047H19.4793V6.85752H17.4793ZM17.1078 20.9989C18.0665 20.9991 18.9944 20.6657 19.7342 20.0594L18.4666 18.5125C18.0827 18.827 17.6025 18.999 17.1082 18.9989L17.1078 20.9989ZM19.7342 20.0594C20.4749 19.4525 20.9825 18.6077 21.1705 17.6687L19.2095 17.276C19.1122 17.7616 18.8497 18.1985 18.4666 18.5125L19.7342 20.0594ZM20.3867 16.4919L18.7069 16.1548L18.3134 18.1157L19.9932 18.4528L20.3867 16.4919ZM17.5296 16.9392C17.5101 17.0364 17.4576 17.1239 17.3809 17.1867L18.6482 18.7339C19.0829 18.3779 19.3807 17.8822 19.4908 17.3312L17.5296 16.9392ZM17.3809 17.1867C17.3024 17.251 17.2058 17.2849 17.109 17.2848L17.107 19.2848C17.6712 19.2854 18.2154 19.0885 18.6482 18.7339L17.3809 17.1867ZM13.9609 -0.998857C13.0919 -0.998794 12.2352 -0.785587 11.4671 -0.374482L12.4109 1.38881C12.8868 1.13411 13.4191 1.00118 13.961 1.00114L13.9609 -0.998857ZM11.4671 -0.374482C10.7 0.0361103 10.0462 0.629731 9.56358 1.35369L11.2277 2.46302C11.5277 2.01302 11.9341 1.64403 12.4109 1.38881L11.4671 -0.374482ZM9.84018 2.7399L11.2652 3.69179L12.3761 2.02871L10.9511 1.07682L9.84018 2.7399ZM12.6527 3.41492C12.797 3.19846 12.9919 3.02129 13.2189 2.89988L12.2755 1.13637C11.7556 1.41446 11.314 1.81735 10.9886 2.30558L12.6527 3.41492ZM13.2189 2.89988C13.4455 2.77867 13.7 2.71514 13.9606 2.71524L13.9613 0.715237C13.375 0.715019 12.7957 0.858077 12.2755 1.13637L13.2189 2.89988ZM4.12664 17.2848C3.89044 17.2848 3.69823 17.0926 3.69823 16.8564H1.69822C1.69822 18.1972 2.78587 19.2848 4.12664 19.2848V17.2848ZM-0.0158691 16.8564C-0.0158691 17.9551 0.420572 19.0087 1.19744 19.7856L2.61166 18.3714C2.20986 17.9696 1.98413 17.4246 1.98413 16.8564H-0.0158691ZM1.19744 19.7856C1.97431 20.5625 3.02798 20.9989 4.12664 20.9989V18.9989C3.55841 18.9989 3.01345 18.7732 2.61166 18.3714L1.19744 19.7856Z" fill="#FF3300" mask="url(#path-1-inside-1_540_660)"/>
<path d="M14.1476 1.5614L15.2024 2.08881L14.675 3.67106V5.2533L14.1476 7.36295L14.675 7.89036H16.7847H18.8943L19.9492 8.41778L20.4766 9.4726L19.9492 14.2193L18.8943 17.3838L18.3669 17.9112L17.8395 18.966H3.59933H3.07192L2.5445 18.4386L2.01709 8.94519L2.5445 7.89036H4.12674H6.2364L7.81864 7.36295L8.87347 6.30812L10.9831 2.61623L12.5654 1.5614H14.1476Z" fill="#FF3300"/>
<path d="M6.4126 7.7146V19.1419" stroke="white" stroke-width="1.71409"/>
</svg>
