<svg width="20" height="20" viewBox="0 0 20 20" fill="none" xmlns="http://www.w3.org/2000/svg">
<path d="M4.375 2.5C3.5462 2.5 2.75134 2.82924 2.16529 3.41529C1.57924 4.00134 1.25 4.7962 1.25 5.625V11.875C1.25 12.2854 1.33083 12.6917 1.48788 13.0709C1.64492 13.45 1.87511 13.7945 2.16529 14.0847C2.75134 14.6708 3.5462 15 4.375 15H5V17.4275C4.99996 17.6628 5.06769 17.8932 5.1951 18.091C5.32251 18.2888 5.5042 18.4458 5.71845 18.5431C5.93271 18.6404 6.17045 18.6739 6.40326 18.6397C6.63607 18.6054 6.85409 18.5049 7.03125 18.35L10.86 15H15.625C16.0354 15 16.4417 14.9192 16.8209 14.7621C17.2 14.6051 17.5445 14.3749 17.8347 14.0847C18.1249 13.7945 18.3551 13.45 18.5121 13.0709C18.6692 12.6917 18.75 12.2854 18.75 11.875V5.625C18.75 4.7962 18.4208 4.00134 17.8347 3.41529C17.2487 2.82924 16.4538 2.5 15.625 2.5H4.375Z" fill="#FF3300"/>
</svg>
