<svg width="18" height="21" viewBox="0 0 18 21" fill="none" xmlns="http://www.w3.org/2000/svg">
<path d="M4.50311 19.8877L4.50308 19.8876L4.49572 19.8928C3.46346 20.6172 2.03582 19.9619 1.93687 18.6861C1.82637 17.2613 1.6793 14.6525 1.67932 10.8599V10.7915C1.6793 9.28802 1.68003 7.97257 1.78786 6.87374C1.89718 5.75985 2.12486 4.75099 2.66016 3.92547C3.78341 2.1932 5.94085 1.70755 9.25886 1.69389C12.5811 1.68021 14.7418 2.16329 15.8663 3.9067L16.4966 3.50017L15.8663 3.9067C16.4008 4.73532 16.6282 5.74874 16.7375 6.86632C16.8453 7.96933 16.846 9.28819 16.846 10.7922V10.8599C16.846 14.6525 16.6989 17.2613 16.5884 18.6861C16.4894 19.9619 15.0618 20.6171 14.0296 19.8928L14.0296 19.8928L14.0222 19.8877C13.1593 19.2975 12.3612 18.6625 11.7412 18.1689L11.731 18.1608C11.4484 17.9357 11.1935 17.7328 10.9941 17.585C10.6202 17.3079 10.3124 17.122 10.0304 17.0084C9.72528 16.8856 9.48022 16.8595 9.26265 16.8595C9.04508 16.8595 8.80003 16.8856 8.4949 17.0084C8.21294 17.122 7.90505 17.3079 7.53124 17.585C7.33171 17.7329 7.07668 17.9359 6.79393 18.161L6.7841 18.1688C6.16409 18.6624 5.36598 19.2975 4.50311 19.8877Z" fill="#FF3300" stroke="#FF3300" stroke-width="1.5" stroke-linecap="round" stroke-linejoin="round"/>
</svg>
