<svg width="20" height="20" viewBox="0 0 20 20" fill="none" xmlns="http://www.w3.org/2000/svg">
<path d="M1.25 5.625C1.25 4.7962 1.57924 4.00134 2.16529 3.41529C2.75134 2.82924 3.5462 2.5 4.375 2.5H15.625C16.4538 2.5 17.2487 2.82924 17.8347 3.41529C18.4208 4.00134 18.75 4.7962 18.75 5.625V11.875C18.75 12.2854 18.6692 12.6917 18.5121 13.0709C18.3551 13.45 18.1249 13.7945 17.8347 14.0847C17.5445 14.3749 17.2 14.6051 16.8209 14.7621C16.4417 14.9192 16.0354 15 15.625 15H10.86L7.03125 18.35C6.85409 18.5049 6.63607 18.6054 6.40326 18.6397C6.17045 18.6739 5.93271 18.6404 5.71845 18.5431C5.5042 18.4458 5.32251 18.2888 5.1951 18.091C5.06769 17.8932 4.99996 17.6628 5 17.4275V15H4.375C3.5462 15 2.75134 14.6708 2.16529 14.0847C1.57924 13.4987 1.25 12.7038 1.25 11.875V5.625ZM4.375 3.75C3.87772 3.75 3.40081 3.94754 3.04917 4.29917C2.69754 4.65081 2.5 5.12772 2.5 5.625V11.875C2.5 12.3723 2.69754 12.8492 3.04917 13.2008C3.40081 13.5525 3.87772 13.75 4.375 13.75H6.25V17.3725L10.39 13.75H15.625C16.1223 13.75 16.5992 13.5525 16.9508 13.2008C17.3025 12.8492 17.5 12.3723 17.5 11.875V5.625C17.5 5.12772 17.3025 4.65081 16.9508 4.29917C16.5992 3.94754 16.1223 3.75 15.625 3.75H4.375Z" fill="#FF3300"/>
</svg>
