<svg width="20" height="20" viewBox="0 0 20 20" fill="none" xmlns="http://www.w3.org/2000/svg">
<path d="M9.16663 10.8333C9.16663 10.6123 9.25442 10.4003 9.4107 10.244C9.56698 10.0878 9.77895 9.99996 9.99996 9.99996C10.221 9.99996 10.4329 10.0878 10.5892 10.244C10.7455 10.4003 10.8333 10.6123 10.8333 10.8333V13.3333C10.8333 13.5543 10.7455 13.7663 10.5892 13.9225C10.4329 14.0788 10.221 14.1666 9.99996 14.1666C9.77895 14.1666 9.56698 14.0788 9.4107 13.9225C9.25442 13.7663 9.16663 13.5543 9.16663 13.3333V10.8333ZM9.99996 6.24996C9.66844 6.24996 9.3505 6.38166 9.11608 6.61608C8.88166 6.8505 8.74996 7.16844 8.74996 7.49996C8.74996 7.83148 8.88166 8.14942 9.11608 8.38384C9.3505 8.61826 9.66844 8.74996 9.99996 8.74996C10.3315 8.74996 10.6494 8.61826 10.8838 8.38384C11.1183 8.14942 11.25 7.83148 11.25 7.49996C11.25 7.16844 11.1183 6.8505 10.8838 6.61608C10.6494 6.38166 10.3315 6.24996 9.99996 6.24996ZM1.66663 9.99996C1.66663 7.78982 2.5446 5.67021 4.1074 4.1074C5.67021 2.5446 7.78982 1.66663 9.99996 1.66663C12.2101 1.66663 14.3297 2.5446 15.8925 4.1074C17.4553 5.67021 18.3333 7.78982 18.3333 9.99996C18.3333 12.2101 17.4553 14.3297 15.8925 15.8925C14.3297 17.4553 12.2101 18.3333 9.99996 18.3333C7.78982 18.3333 5.67021 17.4553 4.1074 15.8925C2.5446 14.3297 1.66663 12.2101 1.66663 9.99996ZM9.99996 3.33329C8.23185 3.33329 6.53616 4.03567 5.28591 5.28591C4.03567 6.53616 3.33329 8.23185 3.33329 9.99996C3.33329 11.7681 4.03567 13.4638 5.28591 14.714C6.53616 15.9642 8.23185 16.6666 9.99996 16.6666C11.7681 16.6666 13.4638 15.9642 14.714 14.714C15.9642 13.4638 16.6666 11.7681 16.6666 9.99996C16.6666 8.23185 15.9642 6.53616 14.714 5.28591C13.4638 4.03567 11.7681 3.33329 9.99996 3.33329Z" fill="#FF3300"/>
</svg>
