<svg width="26" height="26" viewBox="0 0 26 26" fill="none" xmlns="http://www.w3.org/2000/svg">
<path d="M16.2498 10.8334L15.4481 10.7001C15.4288 10.8165 15.435 10.9357 15.4664 11.0494C15.4978 11.1632 15.5535 11.2687 15.6298 11.3587C15.7061 11.4487 15.8011 11.521 15.9082 11.5706C16.0152 11.6202 16.1318 11.6459 16.2498 11.6459V10.8334ZM4.33313 10.8334V10.0209C4.11764 10.0209 3.91098 10.1065 3.75861 10.2588C3.60623 10.4112 3.52063 10.6179 3.52063 10.8334H4.33313ZM6.4998 22.4792H18.8065V20.8542H6.4998V22.4792ZM20.1065 10.0209H16.2498V11.6459H20.1065V10.0209ZM17.0515 10.9666L17.9246 5.72869L16.3213 5.46111L15.4481 10.7001L17.0515 10.9666ZM16.0548 3.52086H15.823V5.14586H16.0537L16.0548 3.52086ZM12.4419 5.33003L9.7173 9.41744L11.0693 10.3188L13.7939 6.23136L12.4419 5.33003ZM8.59063 10.0209H4.33313V11.6459H8.59063V10.0209ZM3.52063 10.8334V19.5H5.14563V10.8334H3.52063ZM21.7282 20.085L23.0282 13.585L21.4357 13.2654L20.1357 19.7654L21.7282 20.085ZM9.7173 9.41744C9.59369 9.603 9.42618 9.75408 9.22963 9.85935C9.03308 9.96461 8.81359 10.0197 8.59063 10.0198V11.6448C9.5873 11.6448 10.5168 11.1475 11.0693 10.3188L9.7173 9.41744ZM17.9246 5.72869C17.9698 5.45717 17.9552 5.178 17.8821 4.91266C17.8089 4.64733 17.6788 4.4011 17.5009 4.19111C17.3229 3.98111 17.1014 3.81238 16.8517 3.69663C16.602 3.58089 16.33 3.52091 16.0548 3.52086L16.0537 5.14586C16.093 5.14596 16.1328 5.15459 16.1684 5.17116C16.204 5.18774 16.2356 5.21186 16.261 5.24184C16.2863 5.27183 16.3048 5.30698 16.3153 5.34484C16.3257 5.3827 16.3277 5.42237 16.3213 5.46111L17.9246 5.72869ZM20.1065 11.6448C20.9623 11.6448 21.6015 12.4269 21.4346 13.2644L23.0282 13.5839C23.1144 13.1518 23.1037 12.7048 22.9968 12.2773C22.8899 11.8498 22.6895 11.4514 22.41 11.1106C22.1306 10.7699 21.779 10.4955 21.3806 10.307C20.9823 10.1186 20.5471 10.0208 20.1065 10.0209V11.6448ZM18.8065 22.4792C19.4951 22.4793 20.1626 22.2398 20.6953 21.8033C21.228 21.3668 21.593 20.7592 21.7282 20.0839L20.1357 19.7644C20.0743 20.0716 19.9083 20.348 19.6659 20.5466C19.4235 20.7451 19.1198 20.8545 18.8065 20.8542V22.4792ZM15.823 3.52086C15.1542 3.52091 14.4958 3.68498 13.9061 4.00058C13.3165 4.31618 12.8139 4.77247 12.443 5.32894L13.7939 6.23136C14.0166 5.89732 14.3183 5.62237 14.6723 5.433C15.0262 5.24363 15.4215 5.14571 15.823 5.14586V3.52086ZM6.4998 20.8542C5.7523 20.8542 5.14563 20.2475 5.14563 19.5H3.52063C3.52063 20.2901 3.83451 21.0479 4.39321 21.6066C4.95191 22.1653 5.70967 22.4792 6.4998 22.4792V20.8542Z" fill="#FF3300"/>
<path d="M8.66699 10.8334V21.6667" stroke="#FF3300" stroke-width="1.625"/>
</svg>
