<svg width="18" height="21" viewBox="0 0 18 21" fill="none" xmlns="http://www.w3.org/2000/svg">
<path d="M4.50299 19.8877L4.50296 19.8876L4.4956 19.8928C3.46334 20.6172 2.0357 19.9619 1.93675 18.6861C1.82625 17.2613 1.67918 14.6525 1.6792 10.8599V10.7915C1.67917 9.28802 1.67991 7.97257 1.78774 6.87374C1.89705 5.75985 2.12474 4.75099 2.66004 3.92547C3.78329 2.1932 5.94073 1.70755 9.25873 1.69389C12.5809 1.68021 14.7417 2.16329 15.8662 3.9067L16.4965 3.50017L15.8662 3.9067C16.4007 4.73532 16.6281 5.74874 16.7374 6.86632C16.8452 7.96933 16.8459 9.28819 16.8459 10.7922V10.8599C16.8459 14.6525 16.6988 17.2613 16.5883 18.6861C16.4893 19.9619 15.0617 20.6171 14.0295 19.8928L14.0295 19.8928L14.0221 19.8877C13.1592 19.2975 12.3611 18.6625 11.7411 18.1689L11.7309 18.1608C11.4482 17.9357 11.1934 17.7328 10.9939 17.585C10.6201 17.3079 10.3122 17.122 10.0303 17.0084C9.72515 16.8856 9.4801 16.8595 9.26253 16.8595C9.04496 16.8595 8.7999 16.8856 8.49478 17.0084C8.21282 17.122 7.90493 17.3079 7.53112 17.585C7.33159 17.7329 7.07656 17.9359 6.79381 18.161L6.78398 18.1688C6.16397 18.6624 5.36586 19.2975 4.50299 19.8877Z" stroke="#FF3300" stroke-width="1.5" stroke-linecap="round" stroke-linejoin="round"/>
</svg>
