<svg width="13" height="13" viewBox="0 0 13 13" fill="none" xmlns="http://www.w3.org/2000/svg">
<path d="M2.28869 1.60852L11.5249 6.02583C11.6182 6.07041 11.697 6.1405 11.7522 6.22801C11.8074 6.31551 11.8367 6.41685 11.8367 6.5203C11.8367 6.62375 11.8074 6.72509 11.7522 6.81259C11.697 6.90009 11.6182 6.97019 11.5249 7.01476L2.28869 11.4321C2.19401 11.4774 2.08829 11.4946 1.98411 11.4816C1.87994 11.4686 1.78169 11.426 1.70106 11.3587C1.62043 11.2915 1.56082 11.2025 1.52931 11.1024C1.4978 11.0022 1.49572 10.8951 1.52332 10.7938L2.44738 7.40621C2.45869 7.3647 2.48197 7.32743 2.51432 7.29905C2.54667 7.27068 2.58666 7.25246 2.62929 7.24665L7.10491 6.63865C7.12362 6.63599 7.14132 6.62854 7.1563 6.61702C7.17128 6.6055 7.18302 6.5903 7.19039 6.5729L7.19828 6.54572C7.20174 6.52125 7.19682 6.49632 7.18433 6.475C7.17183 6.45367 7.1525 6.43719 7.12946 6.42824L7.10535 6.42167L2.63412 5.81367C2.59156 5.80779 2.55167 5.78953 2.5194 5.76116C2.48713 5.73279 2.46392 5.69556 2.45264 5.65411L1.52332 2.2472C1.49561 2.14588 1.4976 2.03873 1.52906 1.93851C1.56053 1.83829 1.62013 1.74923 1.70078 1.68193C1.78143 1.61463 1.87973 1.57193 1.98396 1.55891C2.08819 1.5459 2.19397 1.56311 2.28869 1.60852Z" fill="white"/>
</svg>
