<svg width="35" height="36" viewBox="0 0 35 36" fill="none" xmlns="http://www.w3.org/2000/svg">
<path d="M30.625 18C30.625 18.2901 30.5098 18.5683 30.3047 18.7734C30.0995 18.9785 29.8213 19.0937 29.5313 19.0937H8.10879L16.0863 27.0699C16.188 27.1715 16.2686 27.2922 16.3236 27.425C16.3786 27.5577 16.4069 27.7 16.4069 27.8437C16.4069 27.9875 16.3786 28.1298 16.3236 28.2625C16.2686 28.3953 16.188 28.516 16.0863 28.6176C15.9847 28.7192 15.8641 28.7998 15.7313 28.8548C15.5985 28.9098 15.4562 28.9381 15.3125 28.9381C15.1688 28.9381 15.0265 28.9098 14.8937 28.8548C14.7609 28.7998 14.6403 28.7192 14.5387 28.6176L4.69493 18.7738C4.59323 18.6722 4.51256 18.5516 4.45752 18.4188C4.40248 18.2861 4.37415 18.1437 4.37415 18C4.37415 17.8563 4.40248 17.7139 4.45752 17.5812C4.51256 17.4484 4.59323 17.3277 4.69493 17.2262L14.5387 7.38242C14.7439 7.17719 15.0223 7.06189 15.3125 7.06189C15.6027 7.06189 15.8811 7.17719 16.0863 7.38242C16.2916 7.58765 16.4069 7.86601 16.4069 8.15625C16.4069 8.44649 16.2916 8.72484 16.0863 8.93008L8.10879 16.9062H29.5313C29.8213 16.9062 30.0995 17.0215 30.3047 17.2266C30.5098 17.4317 30.625 17.7099 30.625 18Z" fill="#FF3300"/>
</svg>
