<svg width="147" height="200" viewBox="0 0 147 200" fill="none" xmlns="http://www.w3.org/2000/svg">
<g filter="url(#filter0_b_14_2348)">
<path d="M73.5003 53.8801L14.5119 6.38304L14.1289 6V119.763L35.1962 136.617V50.4327L73.5003 80.3099L132.872 34.345V6L73.5003 53.8801Z" fill="#FF3300"/>
<path d="M44.3891 96.7807V68.8187L73.5003 92.1842L132.872 44.6871V119.763L111.038 137V89.5029L73.5003 118.231L44.3891 96.7807Z" fill="#404040"/>
</g>
<path d="M8.29515 166.62V162.723H21.5438V166.62H17.0627V190H12.7763V166.62H8.29515ZM29.3545 162.723L32.5108 182.09L35.4333 162.723H41.3952V190H37.3427V170.439L34.3812 190H30.3287L27.1334 170.711V190H23.3926V162.723H29.3545ZM50.0181 169.27C50.0181 164.905 52.1613 162.412 56.3307 162.412C60.5001 162.412 62.6433 164.905 62.6433 169.27V170.127H58.5908V168.997C58.5908 167.049 57.8114 166.308 56.4476 166.308C55.0838 166.308 54.3044 167.049 54.3044 168.997C54.3044 174.608 62.6823 175.66 62.6823 183.454C62.6823 187.818 60.5001 190.312 56.2917 190.312C52.0833 190.312 49.9012 187.818 49.9012 183.454V181.778H53.9537V183.726C53.9537 185.675 54.811 186.376 56.1748 186.376C57.5387 186.376 58.3959 185.675 58.3959 183.726C58.3959 178.115 50.0181 177.063 50.0181 169.27ZM73.5159 179.83H77.5685V183.454C77.5685 187.818 75.3863 190.312 71.1779 190.312C66.9695 190.312 64.7874 187.818 64.7874 183.454V169.27C64.7874 164.905 66.9695 162.412 71.1779 162.412C75.3863 162.412 77.5685 164.905 77.5685 169.27V171.919H73.5159V168.997C73.5159 167.049 72.6587 166.308 71.2948 166.308C69.931 166.308 69.0737 167.049 69.0737 168.997V183.726C69.0737 185.675 69.931 186.376 71.2948 186.376C72.6587 186.376 73.5159 185.675 73.5159 183.726V179.83ZM84.4555 178.31V190H80.1692V162.723H84.4555V174.413H89.3263V162.723H93.6906V190H89.3263V178.31H84.4555ZM100.734 168.997V183.726C100.734 185.675 101.591 186.415 102.955 186.415C104.319 186.415 105.176 185.675 105.176 183.726V168.997C105.176 167.049 104.319 166.308 102.955 166.308C101.591 166.308 100.734 167.049 100.734 168.997ZM96.4478 183.454V169.27C96.4478 164.905 98.7468 162.412 102.955 162.412C107.164 162.412 109.463 164.905 109.463 169.27V183.454C109.463 187.818 107.164 190.312 102.955 190.312C98.7468 190.312 96.4478 187.818 96.4478 183.454ZM116.184 168.997V183.726C116.184 185.675 117.041 186.415 118.405 186.415C119.769 186.415 120.626 185.675 120.626 183.726V168.997C120.626 167.049 119.769 166.308 118.405 166.308C117.041 166.308 116.184 167.049 116.184 168.997ZM111.897 183.454V169.27C111.897 164.905 114.197 162.412 118.405 162.412C122.613 162.412 124.912 164.905 124.912 169.27V183.454C124.912 187.818 122.613 190.312 118.405 190.312C114.197 190.312 111.897 187.818 111.897 183.454ZM127.698 190V162.723H131.984V186.103H139.037V190H127.698Z" fill="#404040"/>
<defs>
<filter id="filter0_b_14_2348" x="-6" y="-6" width="159" height="155" filterUnits="userSpaceOnUse" color-interpolation-filters="sRGB">
<feFlood flood-opacity="0" result="BackgroundImageFix"/>
<feGaussianBlur in="BackgroundImageFix" stdDeviation="3"/>
<feComposite in2="SourceAlpha" operator="in" result="effect1_backgroundBlur_14_2348"/>
<feBlend mode="normal" in="SourceGraphic" in2="effect1_backgroundBlur_14_2348" result="shape"/>
</filter>
</defs>
</svg>
